<svg width="50" height="50" viewBox="0 0 50 50" fill="none" xmlns="http://www.w3.org/2000/svg">
    <g clip-path="url(#clip0)">
        <path d="M7.95436 5.68182H3.40886C2.78159 5.68182 2.27246 6.19095 2.27246 6.81822V15.9091C2.27246 16.5364 2.78159 17.0455 3.40886 17.0455C4.03613 17.0455 4.54526 16.5364 4.54526 15.9091V7.95462H7.95436C8.58163 7.95462 9.09076 7.4455 9.09076 6.81822C9.09076 6.19095 8.58163 5.68182 7.95436 5.68182Z"
              fill="#0169E3"/>
        <path d="M7.95436 10.2273H3.40886C2.78159 10.2273 2.27246 10.7364 2.27246 11.3637C2.27246 11.991 2.78159 12.5 3.40886 12.5H7.95436C8.58163 12.5 9.09076 11.9909 9.09076 11.3636C9.09076 10.7363 8.58163 10.2273 7.95436 10.2273Z"
              fill="#0169E3"/>
        <path d="M17.0461 10.2273C16.4189 10.2273 15.9097 10.7364 15.9097 11.3637V13.6364C15.9097 14.2637 15.3984 14.7728 14.7734 14.7728C14.1484 14.7728 13.6371 14.2637 13.6371 13.6364V11.3637C13.6371 10.7364 13.1279 10.2273 12.5007 10.2273C11.8734 10.2273 11.3643 10.7364 11.3643 11.3637V13.6364C11.3643 15.516 12.8938 17.0455 14.7734 17.0455C16.6529 17.0455 18.1824 15.516 18.1824 13.6364V11.3637C18.1825 10.7364 17.6734 10.2273 17.0461 10.2273Z"
              fill="#0169E3"/>
        <path d="M21.5905 5.68182C20.9632 5.68182 20.4541 6.19095 20.4541 6.81822V15.9091C20.4541 16.5364 20.9632 17.0455 21.5905 17.0455C22.2178 17.0455 22.7269 16.5364 22.7269 15.9091V6.81822C22.7268 6.19095 22.2178 5.68182 21.5905 5.68182Z"
              fill="#0169E3"/>
        <path d="M26.1364 5.68182C25.5091 5.68182 25 6.19095 25 6.81822V15.9091C25 16.5364 25.5091 17.0455 26.1364 17.0455C26.7637 17.0455 27.2728 16.5364 27.2728 15.9091V6.81822C27.2728 6.19095 26.7637 5.68182 26.1364 5.68182Z"
              fill="#0169E3"/>
        <path d="M32.9548 5.68182C32.3275 5.68182 31.8184 6.19095 31.8184 6.81822V15.9091C31.8184 16.5364 32.3275 17.0455 32.9548 17.0455C33.582 17.0455 34.0912 16.5364 34.0912 15.9091V6.81822C34.0912 6.19095 33.582 5.68182 32.9548 5.68182Z"
              fill="#0169E3"/>
        <path d="M37.5007 5.68182C36.8734 5.68182 36.3643 6.19095 36.3643 6.81822V15.9091C36.3643 16.5364 36.8734 17.0455 37.5007 17.0455C38.1279 17.0455 38.6371 16.5364 38.6371 15.9091V6.81822C38.6371 6.19095 38.1279 5.68182 37.5007 5.68182Z"
              fill="#0169E3"/>
        <path d="M37.5003 10.2273H32.9548C32.3275 10.2273 31.8184 10.7364 31.8184 11.3637C31.8184 11.991 32.3275 12.5001 32.9548 12.5001H37.5003C38.1275 12.5001 38.6367 11.991 38.6367 11.3637C38.6367 10.7364 38.1275 10.2273 37.5003 10.2273Z"
              fill="#0169E3"/>
        <path d="M44.3183 5.68182H42.0456C41.4183 5.68182 40.9092 6.19095 40.9092 6.81822V15.9091C40.9092 16.5364 41.4183 17.0455 42.0456 17.0455H44.3183C46.1979 17.0455 47.7274 15.516 47.7274 13.6364V9.09092C47.7274 7.21144 46.1979 5.68182 44.3183 5.68182ZM45.4547 13.6364C45.4547 14.2637 44.9433 14.7728 44.3183 14.7728H43.1819V7.95462H44.3183C44.9433 7.95462 45.4547 8.46375 45.4547 9.09102V13.6364Z"
              fill="#0169E3"/>
        <path d="M8.21577 23.8931C7.69077 23.7726 7.17259 24.0181 6.93619 24.4909L4.6635 29.0364C4.38395 29.5977 4.61119 30.2795 5.17262 30.5614C5.73853 30.8387 6.41577 30.616 6.69766 30.0523L6.81815 29.8137V38.6364C6.81815 39.2637 7.32728 39.7728 7.95455 39.7728C8.58182 39.7728 9.09095 39.2637 9.09095 38.6364V25C9.09074 24.4727 8.72937 24.0136 8.21577 23.8931Z"
              fill="#0169E3"/>
        <path d="M18.1822 23.8638C15.6754 23.8638 13.6367 25.9024 13.6367 28.4093V35.2274C13.6367 37.7343 15.6754 39.7729 18.1822 39.7729C20.6891 39.7729 22.7277 37.7343 22.7277 35.2274V28.4093C22.7276 25.9024 20.689 23.8638 18.1822 23.8638ZM20.4549 35.2274C20.4549 36.4798 19.4368 37.5001 18.1822 37.5001C16.9277 37.5001 15.9095 36.4797 15.9095 35.2274V28.4093C15.9095 27.157 16.9277 26.1366 18.1822 26.1366C19.4368 26.1366 20.4549 27.157 20.4549 28.4093V35.2274Z"
              fill="#0169E3"/>
        <path d="M40.9098 23.8638C38.4029 23.8638 36.3643 25.9024 36.3643 28.4093V35.2274C36.3643 37.7343 38.4029 39.7729 40.9098 39.7729C43.4166 39.7729 45.4553 37.7343 45.4553 35.2274V28.4093C45.4553 25.9024 43.4166 23.8638 40.9098 23.8638ZM43.1825 35.2274C43.1825 36.4798 42.1643 37.5001 40.9098 37.5001C39.6552 37.5001 38.6371 36.4797 38.6371 35.2274V28.4093C38.6371 27.157 39.6552 26.1366 40.9098 26.1366C42.1643 26.1366 43.1825 27.1571 43.1825 28.4093V35.2274Z"
              fill="#0169E3"/>
        <path d="M29.5455 23.8638C27.0386 23.8638 25 25.9024 25 28.4093C25 30.9161 27.0386 32.9548 29.5455 32.9548C32.0524 32.9548 34.091 30.9161 34.091 28.4093C34.091 25.9024 32.0524 23.8638 29.5455 23.8638ZM29.5455 30.682C28.2909 30.682 27.2728 29.6615 27.2728 28.4093C27.2728 27.157 28.2909 26.1366 29.5455 26.1366C30.8 26.1366 31.8182 27.1571 31.8182 28.4093C31.8183 29.6615 30.8 30.682 29.5455 30.682Z"
              fill="#0169E3"/>
        <path d="M29.5455 30.6818C27.0386 30.6818 25 32.7205 25 35.2273C25 37.7342 27.0386 39.7728 29.5455 39.7728C32.0524 39.7728 34.091 37.7342 34.091 35.2273C34.091 32.7205 32.0524 30.6818 29.5455 30.6818ZM29.5455 37.5C28.2909 37.5 27.2728 36.4795 27.2728 35.2273C27.2728 33.9751 28.2909 32.9546 29.5455 32.9546C30.8 32.9546 31.8182 33.9751 31.8182 35.2273C31.8182 36.4795 30.8 37.5 29.5455 37.5Z"
              fill="#0169E3"/>
        <path d="M42.0455 19.3181H7.95459C3.56815 19.3181 0 22.8863 0 27.2726V36.3635C0 40.75 3.56815 44.3181 7.95459 44.3181H42.0455C46.4318 44.3181 50.0001 40.75 50.0001 36.3635V27.2726C50 22.8863 46.4318 19.3181 42.0455 19.3181ZM47.7273 36.3635C47.7273 39.4953 45.1795 42.0453 42.0455 42.0453H7.95459C4.82046 42.0453 2.2728 39.4953 2.2728 36.3635V27.2726C2.2728 24.1409 4.82056 21.5909 7.95459 21.5909H42.0455C45.1795 21.5909 47.7273 24.1409 47.7273 27.2726V36.3635Z"
              fill="#0169E3"/>
    </g>
    <defs>
        <clipPath id="clip0">
            <rect width="50" height="50" fill="white"/>
        </clipPath>
    </defs>
</svg>
