<svg width="50" height="50" viewBox="0 0 50 50" fill="none" xmlns="http://www.w3.org/2000/svg">
    <path d="M42.3427 26.4707C42.8842 26.4707 43.3231 26.0317 43.3231 25.4903C43.3231 24.9488 42.8842 24.5099 42.3427 24.5099C41.8012 24.5099 41.3623 24.9488 41.3623 25.4903C41.3623 26.0317 41.8012 26.4707 42.3427 26.4707Z"
          fill="#0169E3"/>
    <path d="M7.53801 26.4707C8.07946 26.4707 8.5184 26.0317 8.5184 25.4903C8.5184 24.9488 8.07946 24.5099 7.53801 24.5099C6.99655 24.5099 6.55762 24.9488 6.55762 25.4903C6.55762 26.0317 6.99655 26.4707 7.53801 26.4707Z"
          fill="#0169E3"/>
    <path d="M25.1855 43.6277C25.7269 43.6277 26.1659 43.1887 26.1659 42.6473C26.1659 42.1058 25.7269 41.6669 25.1855 41.6669C24.644 41.6669 24.2051 42.1058 24.2051 42.6473C24.2051 43.1887 24.644 43.6277 25.1855 43.6277Z"
          fill="#0169E3"/>
    <path d="M24.0902 31.3727H18.0671C18.6108 30.4771 19.7215 29.46 20.7348 28.532C22.6764 26.7536 24.6843 24.9149 24.6843 22.6933C24.6843 19.9026 22.4176 18.2355 20.2264 18.2355C17.9916 18.2355 15.3818 19.5041 15.3818 23.0796C15.3818 23.6208 15.8211 24.06 16.3622 24.06C16.9034 24.06 17.3426 23.6208 17.3426 23.0796C17.3426 20.4771 19.3593 20.1963 20.2264 20.1963C21.2632 20.1963 22.7235 20.9713 22.7235 22.6933C22.7235 24.0521 20.9632 25.6639 19.4103 27.086C17.5372 28.8012 15.7681 30.4217 15.7681 32.3531V33.3335H24.0902C24.6313 33.3335 25.0705 32.8943 25.0705 32.3531C25.0705 31.8119 24.6313 31.3727 24.0902 31.3727Z"
          fill="#0169E3"/>
    <path d="M34.8041 27.4508H32.8433V19.1175C32.8433 18.6812 32.5546 18.2974 32.1354 18.1758C31.7178 18.0552 31.2678 18.2253 31.034 18.5945L25.1516 27.9082C24.9609 28.2106 24.9492 28.592 25.1217 28.9052C25.2948 29.218 25.6232 29.4121 25.9805 29.4121H30.8825V32.3533C30.8825 32.8945 31.3217 33.3337 31.8629 33.3337C32.4041 33.3337 32.8433 32.8945 32.8433 32.3528V29.4116H34.8041C35.3452 29.4116 35.7845 28.9724 35.7845 28.4312C35.7845 27.89 35.3452 27.4508 34.8041 27.4508ZM30.8825 27.4513H27.7595L30.8825 22.5062V27.4513Z"
          fill="#0169E3"/>
    <path d="M48.5294 23.5294C47.7172 23.5294 47.0588 24.1877 47.0588 25C47.0588 37.1632 37.1632 47.0588 25 47.0588C12.8368 47.0588 2.94118 37.1632 2.94118 25C2.94118 12.8368 12.8368 2.94118 25 2.94118C29.9387 2.94118 34.6074 4.53627 38.5005 7.55343C39.1422 8.05049 40.0662 7.93431 40.5637 7.29216C41.0613 6.65 40.9446 5.72647 40.3025 5.22892C35.8887 1.80784 30.5971 0 25 0C11.2152 0 0 11.2147 0 25C0 38.7848 11.2152 50 25 50C38.7848 50 50 38.7848 50 25C50 24.1877 49.3417 23.5294 48.5294 23.5294Z"
          fill="#0169E3"/>
    <path d="M41.6673 0.420776C40.8551 0.420776 40.1967 1.07911 40.1967 1.89136V7.35313H34.8046C33.9923 7.35313 33.334 8.01146 33.334 8.82372C33.334 9.63597 33.9923 10.2943 34.8046 10.2943H41.6673C42.4796 10.2943 43.1379 9.63548 43.1379 8.82372V1.89136C43.1379 1.07911 42.4796 0.420776 41.6673 0.420776Z"
          fill="#0169E3"/>
    <path d="M25.1855 9.31394C25.7269 9.31394 26.1659 8.875 26.1659 8.33354C26.1659 7.79209 25.7269 7.35315 25.1855 7.35315C24.644 7.35315 24.2051 7.79209 24.2051 8.33354C24.2051 8.875 24.644 9.31394 25.1855 9.31394Z"
          fill="#0169E3"/>
</svg>
