<svg width="50" height="51" viewBox="0 0 50 51" fill="none" xmlns="http://www.w3.org/2000/svg">
    <path d="M34.9946 21.6891L31.0414 25.6538L28.5102 23.1152C27.8947 22.4979 26.8966 22.4979 26.281 23.1152C25.6654 23.7325 25.6654 24.7335 26.281 25.3509L29.9268 29.0074C30.5424 29.6248 31.5404 29.6248 32.156 29.0074L37.2238 23.9247C37.8394 23.3074 37.8394 22.3064 37.2238 21.689C36.6083 21.0718 35.6102 21.0718 34.9946 21.6891Z"
          fill="#0169E3"/>
    <path d="M20.0557 12.3893C20.0353 12.3885 20.0153 12.3862 19.9947 12.3862H12.6478C11.7772 12.3862 11.0715 13.094 11.0715 13.9671C11.0715 14.8402 11.7772 15.5481 12.6478 15.5481H16.618C14.0625 18.5452 12.474 22.303 12.1469 26.3089H6.80433C5.9338 26.3089 5.22804 27.0167 5.22804 27.8898C5.22804 28.7629 5.9338 29.4707 6.80433 29.4707H12.1468C12.4732 33.4701 14.0575 37.23 16.6181 40.2315H1.57629C0.705759 40.2315 0 40.9394 0 41.8125C0 42.6856 0.705759 43.3934 1.57629 43.3934C1.783 43.3934 19.9296 43.3951 20.0555 43.3903C23.2434 45.6713 27.0592 46.9047 31.0409 46.9047C41.5825 46.9045 50 38.3182 50 27.8897C50 12.3818 32.4885 3.49837 20.0557 12.3893ZM31.0409 43.7427C22.3757 43.7427 15.2344 36.7241 15.2344 27.8897C15.2344 23.5002 16.9839 19.4164 20.1608 16.3907C30.1636 6.8591 46.8474 13.9469 46.8474 27.8897C46.8474 36.6105 39.8062 43.7427 31.0409 43.7427Z"
          fill="#0169E3"/>
    <path d="M31.0411 19.3357C32.0087 19.3357 32.7931 18.549 32.7931 17.5786C32.7931 16.6081 32.0087 15.8214 31.0411 15.8214C30.0735 15.8214 29.2891 16.6081 29.2891 17.5786C29.2891 18.549 30.0735 19.3357 31.0411 19.3357Z"
          fill="#0169E3"/>
    <path d="M31.0409 39.9579C32.0085 39.9579 32.7928 39.1713 32.7928 38.2009C32.7928 37.2305 32.0085 36.4438 31.0409 36.4438C30.0734 36.4438 29.2891 37.2305 29.2891 38.2009C29.2891 39.1713 30.0734 39.9579 31.0409 39.9579Z"
          fill="#0169E3"/>
    <path d="M41.2626 26.074C40.2951 26.074 39.5107 26.8606 39.5107 27.8311C39.5107 28.8015 40.2951 29.5881 41.2626 29.5881C42.2303 29.5881 43.0146 28.8015 43.0146 27.8311C43.0145 26.8606 42.2302 26.074 41.2626 26.074Z"
          fill="#0169E3"/>
    <path d="M20.9762 29.5676C21.9312 29.4124 22.5799 28.5101 22.4251 27.5523C22.2702 26.5945 21.3706 25.944 20.4156 26.0992C19.4607 26.2545 18.812 27.1568 18.9668 28.1146C19.1216 29.0723 20.0213 29.7229 20.9762 29.5676Z"
          fill="#0169E3"/>
</svg>
