<svg width="50" height="50" viewBox="0 0 50 50" fill="none" xmlns="http://www.w3.org/2000/svg">
    <path d="M49.0068 7.6414C49.0068 3.97932 46.0268 1 42.3636 1C39.1813 1 36.5157 3.24912 35.8705 6.24062H26.656C25.4037 6.24062 24.2263 6.72808 23.3405 7.61337L2.37379 28.5691C1.48797 29.4545 1 30.6318 1 31.8841C0.999906 33.1364 1.48769 34.3138 2.37351 35.1994L14.8113 47.6336C15.697 48.519 16.8746 49.0067 18.1272 49.0067C19.3797 49.0067 20.5573 48.5191 21.443 47.6336L28.6968 40.3818C29.0631 40.0157 29.0631 39.422 28.6968 39.0558C28.3305 38.6898 27.7368 38.6898 27.3704 39.0558L20.1166 46.3076C19.0195 47.4043 17.2346 47.4043 16.1376 46.3076L3.69975 33.8734C3.16826 33.3421 2.87555 32.6357 2.87564 31.8842C2.87564 31.1328 3.16835 30.4265 3.69993 29.8953L24.6667 8.93951C25.1981 8.40836 25.9046 8.11583 26.656 8.11583H35.739C35.851 9.71087 36.524 11.1957 37.666 12.3374C38.0324 12.7036 38.6261 12.7036 38.9924 12.3375C39.3587 11.9713 39.3587 11.3777 38.9925 11.0115C38.2048 10.224 37.7268 9.20954 37.6194 8.11573H39.0945C40.6459 8.11573 41.9081 9.37755 41.9081 10.9285V23.3574C41.9081 24.1087 41.6155 24.8151 41.084 25.3463L33.339 33.0891C32.9728 33.4552 32.9728 34.0489 33.339 34.4151C33.7053 34.7812 34.299 34.7812 34.6654 34.4151L42.4104 26.6723C43.2961 25.7869 43.7839 24.6096 43.7839 23.3575V14.1296C46.8083 13.4767 49.0068 10.8088 49.0068 7.6414ZM43.7839 12.1934V10.9285C43.7839 8.34357 41.6802 6.24053 39.0945 6.24053H37.8066C38.4066 4.29398 40.2224 2.8752 42.3636 2.8752C44.9924 2.8752 47.1311 5.01331 47.1311 7.6414C47.1311 9.77266 45.7449 11.5888 43.7839 12.1934Z"
          fill="white"/>
    <path d="M13.93 31.8334C14.2961 31.4672 14.2961 30.8735 13.93 30.5073C13.5638 30.1413 12.9703 30.1413 12.604 30.5073L10.3469 32.7644C9.98073 33.1305 9.98073 33.7242 10.3469 34.0904L15.9158 39.6595C16.099 39.8425 16.3389 39.9341 16.5788 39.9341C16.8188 39.9341 17.0587 39.8425 17.2418 39.6595C17.6079 39.2934 17.6079 38.6997 17.2418 38.3335L15.0675 36.1592L16.4823 34.7443C16.8485 34.3782 16.8485 33.7845 16.4823 33.4183C16.1161 33.0522 15.5226 33.0522 15.1563 33.4183L13.7415 34.8331L12.3356 33.4273L13.93 31.8334Z"
          fill="white"/>
    <path d="M24.9971 31.5166C25.4877 31.5166 25.9003 31.1352 25.9319 30.6387C25.9649 30.1219 25.5727 29.6763 25.0559 29.6434L21.9563 29.4457C22.2168 28.9979 22.3646 28.4911 22.381 27.9641C22.4068 27.1347 22.1072 26.3642 21.5375 25.7944C20.3739 24.6308 18.4438 24.6674 17.2348 25.8762L15.7549 27.3561C15.7546 27.3564 15.7543 27.3568 15.7541 27.3571C15.7538 27.3573 15.7534 27.3576 15.7531 27.3579C15.387 27.724 15.387 28.3177 15.7531 28.6839L21.3222 34.2529C21.5053 34.4359 21.7452 34.5275 21.9852 34.5275C22.2251 34.5275 22.465 34.4359 22.6481 34.2529C23.0143 33.8868 23.0143 33.2931 22.6481 32.9269L20.9838 31.2626L24.9363 31.5147C24.9569 31.516 24.9771 31.5166 24.9971 31.5166ZM18.5609 27.2022C19.0305 26.7326 19.7863 26.6951 20.2115 27.1203C20.4115 27.3203 20.5163 27.599 20.5067 27.9055C20.4968 28.2257 20.3593 28.5411 20.1296 28.7708C19.9416 28.9588 19.6177 29.2853 19.322 29.5839C19.0299 29.2949 18.7129 28.9805 18.5321 28.7997C18.3774 28.6451 18.0505 28.32 17.746 28.017L18.5609 27.2022Z"
          fill="white"/>
    <path d="M34.1288 22.7726L36.4753 20.4261C36.8415 20.0599 36.8415 19.4662 36.4753 19.1C36.1091 18.734 35.5156 18.734 35.1493 19.1L33.4657 20.7836L32.0072 19.325L33.5177 17.8145C33.8838 17.4483 33.8838 16.8546 33.5177 16.4884C33.1514 16.1224 32.5579 16.1224 32.1916 16.4884L30.6811 17.999L29.2225 16.5404L30.9062 14.8568C31.2723 14.4907 31.2723 13.897 30.9062 13.5308C30.5399 13.1647 29.9464 13.1647 29.5801 13.5308L27.2336 15.8773C26.8675 16.2434 26.8675 16.8371 27.2336 17.2033L30.0177 19.9874L30.0182 19.9879C30.0182 19.9879 30.0184 19.9882 30.0186 19.9884L32.8027 22.7725C32.9785 22.9483 33.217 23.0471 33.4656 23.0471C33.7143 23.0471 33.9529 22.9484 34.1288 22.7726Z"
          fill="white"/>
    <path d="M28.0291 28.485C28.2778 28.485 28.5162 28.3862 28.6921 28.2104L31.0386 25.8638C31.4047 25.4977 31.4047 24.904 31.0386 24.5378C30.6724 24.1717 30.0789 24.1717 29.7126 24.5378L28.029 26.2213L26.5705 24.7628L28.0811 23.2522C28.4473 22.8861 28.4473 22.2924 28.0811 21.9262C27.715 21.5603 27.1215 21.5601 26.7551 21.9262L25.2445 23.4368L23.786 21.9782L25.4696 20.2947C25.8358 19.9285 25.8358 19.3348 25.4696 18.9686C25.1034 18.6026 24.5099 18.6026 24.1436 18.9686L21.7971 21.3152C21.4309 21.6813 21.4309 22.275 21.7971 22.6412L27.366 28.2103C27.5419 28.3862 27.7804 28.485 28.0291 28.485Z"
          fill="white"/>
    <path d="M31.0089 35.798C30.7623 35.798 30.5204 35.8983 30.346 36.0727C30.1717 36.2471 30.0713 36.489 30.0713 36.7356C30.0713 36.9822 30.1716 37.2241 30.346 37.3985C30.5204 37.5728 30.7623 37.6732 31.0089 37.6732C31.2555 37.6732 31.4974 37.5729 31.6718 37.3985C31.8461 37.2241 31.9466 36.9822 31.9466 36.7356C31.9466 36.489 31.8462 36.2471 31.6718 36.0727C31.4974 35.8983 31.2555 35.798 31.0089 35.798Z"
          fill="white"/>
</svg>
