<svg width="50" height="50" viewBox="0 0 50 50" fill="none" xmlns="http://www.w3.org/2000/svg">
    <g clip-path="url(#clip0)">
        <path d="M14.8101 21.6928L14.8083 21.7246C14.6851 23.8823 15.8937 25.9037 17.8882 26.8727L17.9087 26.8827C18.6119 27.2191 19.1882 27.7736 19.5519 28.4632L19.5601 28.4782C20.565 30.3918 22.6437 31.5518 24.8596 31.4354L24.8932 31.4336C25.6968 31.3886 26.4946 31.5959 27.1746 32.0268C29.0509 33.2004 31.4327 33.2004 33.3091 32.0268C33.9891 31.5959 34.7868 31.3886 35.5904 31.4336L35.624 31.4354C37.8363 31.5527 39.9177 30.3918 40.9249 28.475L40.9299 28.4646C41.2949 27.7732 41.8726 27.2177 42.5781 26.8809L42.5945 26.8727C44.589 25.9032 45.7981 23.8823 45.6744 21.7241L45.6726 21.6941C45.6317 20.9341 45.8426 20.1819 46.2735 19.5542C47.514 17.7451 47.514 15.3596 46.274 13.5501C45.8435 12.9228 45.6317 12.171 45.6726 11.411L45.6744 11.3792C45.7981 9.22104 44.589 7.20014 42.5926 6.23015L42.5745 6.22106C41.8726 5.8856 41.2977 5.33379 40.9336 4.64607L40.9231 4.62561C39.9177 2.71199 37.8363 1.55245 35.624 1.66836L35.59 1.67018C34.7868 1.71518 33.9891 1.50791 33.3095 1.077H33.3086C31.4323 -0.0966299 29.0505 -0.0966299 27.1741 1.077C26.4941 1.50745 25.6964 1.71472 24.8927 1.66972L24.8591 1.6679C22.6464 1.55063 20.5655 2.71153 19.5605 4.6247L19.5528 4.63879C19.1887 5.3297 18.6119 5.8847 17.9078 6.22151L17.8887 6.2306C15.8942 7.19969 14.6851 9.22104 14.8087 11.3792L14.8105 11.4092C14.8514 12.1692 14.6405 12.9215 14.2096 13.5487C12.9692 15.3583 12.9692 17.7442 14.2096 19.5532C14.6401 20.1805 14.8514 20.9328 14.8101 21.6928ZM15.7419 14.606C16.4069 13.6378 16.7328 12.4769 16.6692 11.3042L16.6673 11.2724C16.6019 9.8424 17.4046 8.51422 18.7005 7.9065L18.7164 7.89877C19.7796 7.38969 20.65 6.55151 21.1991 5.50879L21.2082 5.49152C21.8759 4.21971 23.2746 3.4488 24.76 3.52789L24.7928 3.52926C25.9814 3.59607 27.1609 3.28971 28.1664 2.65244C29.4359 1.85836 31.0468 1.85836 32.3163 2.65244C33.3218 3.2888 34.5013 3.59562 35.6895 3.52971L35.7222 3.52789C37.2149 3.44971 38.6068 4.21971 39.2727 5.48788L39.2849 5.51106C39.834 6.55242 40.7036 7.38923 41.7654 7.89786L41.7808 7.90559C43.0972 8.54559 43.8963 9.86694 43.8158 11.2728L43.814 11.306C43.7504 12.4787 44.0767 13.6392 44.7417 14.6074C45.5454 15.7796 45.5449 17.3251 44.7408 18.4969C44.0763 19.4655 43.7504 20.6264 43.814 21.7991L43.8158 21.8305C43.8963 23.2364 43.0972 24.5582 41.7804 25.1987L41.7667 25.205C40.7027 25.715 39.8313 26.5541 39.2818 27.5986L39.2749 27.6123C38.6068 28.8841 37.2104 29.6555 35.7227 29.5759L35.6904 29.5741C34.5018 29.5077 33.3218 29.8145 32.3159 30.4514C31.0468 31.245 29.4359 31.245 28.1668 30.4514C27.2523 29.8718 26.1914 29.5645 25.1087 29.5655C25.0037 29.5655 24.8982 29.5682 24.7928 29.5741L24.76 29.5755C23.2941 29.6686 21.9073 28.9014 21.2069 27.61L21.1973 27.5923C20.6491 26.5514 19.7801 25.715 18.7187 25.2064L18.7014 25.1978C17.3846 24.5578 16.5855 23.2359 16.6664 21.8305L16.6683 21.7973C16.7314 20.6246 16.4051 19.4637 15.7405 18.496C14.9374 17.3237 14.9378 15.7783 15.7419 14.6069V14.606Z"
              fill="white"/>
        <path d="M24.2351 26.1755C24.671 26.4478 25.2451 26.3146 25.5174 25.8787L36.545 8.21245C36.725 7.93018 36.74 7.57291 36.5836 7.277C36.4273 6.98064 36.1236 6.79155 35.7891 6.7811C35.4546 6.77064 35.14 6.94064 34.9655 7.22655L23.9383 24.8928C23.666 25.3292 23.7987 25.9033 24.2351 26.1755Z"
              fill="white"/>
        <path d="M25.2232 16.5979C27.49 16.5979 29.3345 14.4947 29.3345 11.9097C29.3345 9.32476 27.49 7.22205 25.2232 7.22205C22.9564 7.22205 21.1123 9.32476 21.1123 11.9097C21.1123 14.4947 22.9564 16.5979 25.2232 16.5979ZM25.2232 9.08385C26.4636 9.08385 27.4727 10.3516 27.4727 11.9097C27.4727 13.4679 26.4636 14.7361 25.2232 14.7361C23.9832 14.7361 22.9741 13.4675 22.9741 11.9097C22.9741 10.352 23.9832 9.08385 25.2232 9.08385Z"
              fill="white"/>
        <path d="M31.1484 21.195C31.1484 23.78 32.9925 25.8827 35.2593 25.8827C37.5261 25.8827 39.3707 23.7795 39.3707 21.195C39.3707 18.6109 37.5266 16.5073 35.2598 16.5073C32.9925 16.5073 31.1484 18.6096 31.1484 21.195ZM37.5088 21.195C37.5088 22.7532 36.4998 24.0209 35.2593 24.0209C34.0193 24.0209 33.0102 22.7532 33.0102 21.195C33.0102 19.6368 34.0193 18.3691 35.2593 18.3691C36.4998 18.3691 37.5088 19.6359 37.5088 21.195Z"
              fill="white"/>
        <path d="M49.8792 36.6529C48.6464 34.4652 45.9128 33.6321 43.6697 34.7602L36.3774 38.2057C35.3706 36.3334 33.4393 35.1416 31.3138 35.0816L24.582 34.8961C23.5161 34.8657 22.4702 34.5952 21.5225 34.1061L20.8375 33.7512C17.3303 31.923 13.1498 31.9275 9.64621 33.763L9.68894 32.2112C9.70303 31.6971 9.29803 31.2689 8.78394 31.2548L1.40217 31.0516C0.888079 31.0375 0.460354 31.4425 0.446263 31.9566L0.000356817 48.156C-0.0137341 48.6701 0.391264 49.0983 0.905352 49.1124L8.28713 49.3156H8.31304C8.81712 49.3151 9.22939 48.9138 9.24349 48.4101L9.26439 47.6351L11.1821 46.6083C11.9348 46.2033 12.8153 46.107 13.6376 46.3397L25.0888 49.5538C25.1088 49.5597 25.1288 49.5642 25.1493 49.5688C25.977 49.7419 26.8207 49.8288 27.6666 49.8283C29.4575 49.8292 31.2274 49.4433 32.8552 48.696C32.8952 48.6779 32.9338 48.6569 32.9706 48.6333L49.5742 37.8929C49.9883 37.6257 50.1219 37.0816 49.8792 36.6529ZM1.88716 47.2765L2.28171 32.9389L7.80258 33.0907L7.40759 47.4288L1.88716 47.2765ZM32.0161 47.0324C29.9938 47.9451 27.7352 48.197 25.5616 47.7524L14.1407 44.5474C12.8557 44.1838 11.4794 44.3347 10.3035 44.967L9.32349 45.4915L9.58621 35.9584C12.6912 33.893 16.6739 33.6807 19.9812 35.4039L20.6661 35.7589C21.8634 36.377 23.1843 36.7184 24.5311 36.757L31.2629 36.9425C33.1538 36.9966 34.7597 38.3429 35.1433 40.1956L25.1161 39.9197C24.602 39.9057 24.1743 40.3106 24.1602 40.8247C24.1461 41.3388 24.5511 41.767 25.0652 41.7811L36.1311 42.0856H36.1574C36.6611 42.0852 37.0733 41.6838 37.0874 41.1802C37.0988 40.7756 37.0683 40.3706 36.9974 39.9725L44.4756 36.4384L44.4974 36.4279C45.5583 35.8907 46.8414 36.0702 47.7137 36.8779L32.0161 47.0324Z"
              fill="white"/>
    </g>
    <defs>
        <clipPath id="clip0">
            <rect width="50" height="50" fill="white"/>
        </clipPath>
    </defs>
</svg>
