<svg width="50" height="50" viewBox="0 0 50 50" fill="none" xmlns="http://www.w3.org/2000/svg">
    <path d="M42.6777 7.32236C37.9559 2.60039 31.6778 0 25.0001 0C18.3224 0 12.0442 2.60039 7.32236 7.32236C2.60059 12.0443 0 18.3223 0 25C0 31.6777 2.60039 37.9558 7.32236 42.6776C12.0443 47.3995 18.3223 50 25 50C31.6777 50 37.9558 47.3996 42.6776 42.6776C47.3994 37.9558 50 31.6777 50 25C50 18.3223 47.3995 12.0443 42.6777 7.32236ZM40.6043 40.6042C36.4362 44.7723 30.8946 47.0677 25.0002 47.0677C19.1057 47.0677 13.5641 44.7723 9.39609 40.6042C5.22783 36.4361 2.93242 30.8944 2.93242 25C2.93242 19.1056 5.22783 13.564 9.3959 9.3958C13.5641 5.22773 19.1057 2.93232 25.0001 2.93232C30.8945 2.93232 36.4362 5.22773 40.6043 9.3958C44.7724 13.564 47.0678 19.1056 47.0678 25.0001C47.0677 30.8945 44.7723 36.4361 40.6043 40.6042Z"
          fill="#0169E3"/>
    <path d="M32.9117 12.7136C32.2197 12.2931 31.3179 12.5132 30.8974 13.2053C30.4769 13.8974 30.6971 14.7992 31.3891 15.2196C33.0185 16.2097 34.3597 17.6373 35.2679 19.3484C36.1826 21.0722 36.6662 23.0949 36.6662 25.1981C36.6662 31.6311 31.4326 36.8647 24.9996 36.8647C18.5666 36.8647 13.333 31.631 13.333 25.198C13.333 21.1224 15.4061 17.4088 18.8783 15.264C19.5672 14.8384 19.7808 13.9351 19.3552 13.246C18.9297 12.5571 18.0261 12.3436 17.3373 12.7692C15.2578 14.0536 13.519 15.8543 12.309 17.9764C11.0604 20.1663 10.4004 22.6634 10.4004 25.1979C10.4004 33.2477 16.9494 39.7968 24.9993 39.7968C33.0492 39.7968 39.5982 33.2477 39.5982 25.1979C39.5985 19.9249 37.0988 15.2577 32.9117 12.7136Z"
          fill="#0169E3"/>
    <path d="M25.0004 9.68036C24.1906 9.68036 23.5342 10.3368 23.5342 11.1466V25.7143C23.5342 26.5241 24.1905 27.1806 25.0004 27.1806C25.8102 27.1806 26.4666 26.5241 26.4666 25.7143V11.1465C26.4666 10.3368 25.8101 9.68036 25.0004 9.68036Z"
          fill="#0169E3"/>
</svg>
