<svg width="50" height="50" viewBox="0 0 50 50" fill="none" xmlns="http://www.w3.org/2000/svg">
    <g clip-path="url(#clip0)">
        <path d="M48.526 -0.983521H41.6904C40.876 -0.983521 40.2158 -0.323475 40.2158 0.491111C40.2158 1.3057 40.876 1.96574 41.6904 1.96574H44.966L29.8127 17.1189C28.4744 16.1955 26.854 15.6533 25.1087 15.6533C23.3074 15.6533 21.6399 16.2313 20.2776 17.2095L5.03381 1.96574H8.30946C9.12385 1.96574 9.78409 1.3057 9.78409 0.491111C9.78409 -0.323475 9.12385 -0.983521 8.30946 -0.983521H1.47365C0.659265 -0.983521 -0.000976562 -0.323475 -0.000976562 0.491111V7.32672C-0.000976562 8.1413 0.659265 8.80135 1.47365 8.80135C2.28804 8.80135 2.94829 8.1413 2.94829 7.32672V4.05127L18.2204 19.3231C17.3259 20.6479 16.8031 22.2435 16.8031 23.9588C16.8031 25.6994 17.3425 27.316 18.2613 28.6522L2.94829 43.965V40.6898C2.94829 39.8752 2.28804 39.2151 1.47365 39.2151C0.659265 39.2151 -0.000976562 39.8752 -0.000976562 40.6898V47.5254C-0.000976562 48.34 0.659265 49 1.47365 49H8.30926C9.12365 49 9.78389 48.34 9.78389 47.5254C9.78389 46.7108 9.12365 46.0507 8.30926 46.0507H5.03361L20.3352 30.7494C21.6867 31.7024 23.3328 32.2643 25.1085 32.2643C29.6881 32.2643 33.414 28.5386 33.414 23.959C33.414 22.1879 32.8548 20.5457 31.9065 19.1961L47.0512 4.05146V7.32672C47.0512 8.1413 47.7114 8.80135 48.5258 8.80135C49.3402 8.80135 50.0004 8.1413 50.0004 7.32672V0.491111C50.0006 -0.323475 49.3404 -0.983521 48.526 -0.983521ZM25.1087 29.315C22.1553 29.315 19.7524 26.9122 19.7524 23.959C19.7524 21.0056 22.1553 18.6027 25.1087 18.6027C26.4441 18.6027 27.6659 19.0951 28.6049 19.9065C28.6659 20.008 28.7382 20.1043 28.8257 20.1916C28.9169 20.2828 29.018 20.3579 29.1244 20.4203C29.9576 21.3648 30.4647 22.6035 30.4647 23.959C30.4647 26.9122 28.062 29.315 25.1087 29.315Z"
              fill="#0169E3"/>
        <path d="M48.5262 39.2149C47.7118 39.2149 47.0516 39.875 47.0516 40.6896V43.9648L35.9938 32.9072C35.4179 32.3315 34.4842 32.3315 33.9085 32.9072C33.3326 33.4833 33.3326 34.4169 33.9085 34.9928L44.9662 46.0503H41.6906C40.8762 46.0503 40.216 46.7104 40.216 47.525C40.216 48.3395 40.8762 48.9996 41.6906 48.9996H48.5262C49.3406 48.9996 50.0008 48.3395 50.0008 47.525V40.6894C50.0008 39.875 49.3406 39.2149 48.5262 39.2149Z"
              fill="#0169E3"/>
    </g>
    <defs>
        <clipPath id="clip0">
            <rect width="50" height="50" fill="white"/>
        </clipPath>
    </defs>
</svg>
