<svg width="50" height="50" viewBox="0 0 50 50" fill="none" xmlns="http://www.w3.org/2000/svg">
    <path d="M24.3369 0.687333L7.59345 14.4739C7.23721 14.7649 7.0332 15.2 7.0332 15.6595L7.0332 27.9142C7.0332 28.5055 7.37118 29.0447 7.90402 29.299C8.43382 29.5502 9.0641 29.4767 9.51778 29.0999L25.3021 16.1068L41.0865 29.0968C41.5402 29.4737 42.1705 29.5472 42.7033 29.296C43.2331 29.0447 43.5711 28.5055 43.5711 27.9142L43.5711 15.6595C43.5711 15.2 43.3671 14.7649 43.0108 14.4739L26.2643 0.687333C25.7041 0.224717 24.8972 0.224717 24.3369 0.687333ZM40.5263 16.3856L40.5263 24.6821L26.2643 12.942C25.7041 12.4794 24.8972 12.4794 24.3369 12.942L10.078 24.6821L10.078 16.3856L25.3021 3.85211L40.5263 16.3856Z"
          fill="#0169E3"/>
    <path d="M24.3369 20.6014L7.59041 34.388C7.23721 34.679 7.0332 35.114 7.0332 35.5736L7.0332 47.8283C7.0332 48.4196 7.37118 48.9588 7.90402 49.2131C8.43382 49.4643 9.0641 49.3908 9.51778 49.0139L25.3021 36.0209L41.0865 49.0109C41.5402 49.3908 42.1705 49.4643 42.7003 49.2131C43.2331 48.9588 43.5711 48.4196 43.5711 47.8283L43.5711 35.5736C43.5711 35.114 43.3671 34.679 43.0108 34.3879L26.2643 20.6014C25.7041 20.1388 24.8972 20.1388 24.3369 20.6014ZM40.5263 36.2997L40.5263 44.5961L26.2643 32.8561C25.7041 32.3935 24.8972 32.3935 24.3369 32.8561L10.078 44.5961L10.078 36.2997L25.3021 23.7662L40.5263 36.2997Z"
          fill="#0169E3"/>
</svg>
