<svg width="50" height="50" viewBox="0 0 50 50" fill="none" xmlns="http://www.w3.org/2000/svg">
    <g clip-path="url(#clip0)">
        <path d="M21.875 43.75C9.8125 43.75 0 33.9375 0 21.875C0 9.8125 9.8125 0 21.875 0C33.9375 0 43.75 9.8125 43.75 21.875C43.75 25.4875 42.9021 28.9125 41.2333 32.0521C40.9625 32.5583 40.3312 32.7583 39.825 32.4833C39.3167 32.2125 39.125 31.5812 39.3937 31.075C40.9021 28.2396 41.6667 25.1417 41.6667 21.875C41.6667 10.9625 32.7875 2.08333 21.875 2.08333C10.9625 2.08333 2.08333 10.9625 2.08333 21.875C2.08333 32.7875 10.9625 41.6667 21.875 41.6667C24.6354 41.6667 27.2979 41.1062 29.7875 40.0062C30.3083 39.7708 30.9271 40.0125 31.1604 40.5375C31.3937 41.0625 31.1562 41.6792 30.6292 41.9104C27.8729 43.1312 24.9271 43.75 21.875 43.75Z"
              fill="#0169E3"/>
        <path d="M21.875 37.5001C13.2583 37.5001 6.25 30.4918 6.25 21.8751C6.25 13.2585 13.2583 6.25012 21.875 6.25012C30.4917 6.25012 37.5 13.2585 37.5 21.8751C37.5 30.4918 30.4917 37.5001 21.875 37.5001ZM21.875 8.33346C14.4083 8.33346 8.33333 14.4085 8.33333 21.8751C8.33333 29.3418 14.4083 35.4168 21.875 35.4168C29.3417 35.4168 35.4167 29.3418 35.4167 21.8751C35.4167 14.4085 29.3417 8.33346 21.875 8.33346Z"
              fill="#0169E3"/>
        <path d="M21.8756 31.2503C21.3007 31.2503 20.834 30.7836 20.834 30.2086C20.834 29.6336 21.3007 29.1669 21.8756 29.1669C25.8965 29.1669 29.1673 25.8961 29.1673 21.8753C29.1673 21.3003 29.634 20.8336 30.209 20.8336C30.784 20.8336 31.2506 21.3003 31.2506 21.8753C31.2506 27.044 27.0444 31.2503 21.8756 31.2503Z"
              fill="#0169E3"/>
        <path d="M13.5417 22.9168C12.9667 22.9168 12.5 22.4501 12.5 21.8751C12.5 16.7064 16.7063 12.5001 21.875 12.5001C22.45 12.5001 22.9167 12.9668 22.9167 13.5418C22.9167 14.1168 22.45 14.5835 21.875 14.5835C17.8542 14.5835 14.5833 17.8543 14.5833 21.8751C14.5833 22.4501 14.1167 22.9168 13.5417 22.9168Z"
              fill="#0169E3"/>
        <path d="M21.8743 23.9583C23.0249 23.9583 23.9577 23.0255 23.9577 21.875C23.9577 20.7244 23.0249 19.7916 21.8743 19.7916C20.7238 19.7916 19.791 20.7244 19.791 21.875C19.791 23.0255 20.7238 23.9583 21.8743 23.9583Z"
              fill="#0169E3"/>
        <path d="M36.4587 50.0002C35.8837 50.0002 35.417 49.5335 35.417 48.9585V36.4585C35.417 35.8835 35.8837 35.4169 36.4587 35.4169C37.0337 35.4169 37.5003 35.8835 37.5003 36.4585V48.9585C37.5003 49.5335 37.0337 50.0002 36.4587 50.0002Z"
              fill="#0169E3"/>
        <path d="M46.8753 50.0002H44.792C43.0691 50.0002 41.667 48.5981 41.667 46.8752V38.5419C41.667 36.819 43.0691 35.4169 44.792 35.4169H46.8753C48.5983 35.4169 50.0003 36.819 50.0003 38.5419V46.8752C50.0003 48.5981 48.5983 50.0002 46.8753 50.0002ZM44.792 37.5002C44.217 37.5002 43.7503 37.969 43.7503 38.5419V46.8752C43.7503 47.4481 44.217 47.9169 44.792 47.9169H46.8753C47.4503 47.9169 47.917 47.4481 47.917 46.8752V38.5419C47.917 37.969 47.4503 37.5002 46.8753 37.5002H44.792Z"
              fill="#0169E3"/>
    </g>
    <defs>
        <clipPath id="clip0">
            <rect width="50" height="50" fill="white"/>
        </clipPath>
    </defs>
</svg>
