<svg width="195" height="51" viewBox="0 0 195 51" fill="none" xmlns="http://www.w3.org/2000/svg"><ellipse opacity="0.4" cx="94.2961" cy="46.5736" rx="21.0598" ry="2.29896" fill="url(#paint0_radial)"></ellipse><ellipse rx="21.0606" ry="21.073" transform="matrix(0.970978 0.239169 -0.23887 0.971052 94.2956 25.5)" fill="url(#paint1_linear)"></ellipse><mask id="mask0" mask-type="alpha" maskUnits="userSpaceOnUse" x="73" y="4" width="43" height="43"><ellipse rx="21.0606" ry="21.073" transform="matrix(0.970978 0.239169 -0.23887 0.971052 94.2956 25.5)" fill="url(#paint2_linear)"></ellipse></mask><g mask="url(#mask0)"><ellipse cx="94.2954" cy="46.5736" rx="34.0786" ry="8.42952" fill="url(#paint3_radial)"></ellipse></g><ellipse rx="11.3005" ry="11.3071" transform="matrix(0.970978 0.239168 -0.23887 0.971052 94.296 25.5001)" fill="white"></ellipse><path d="M93.4724 32.5662L94.3289 29.3698L86.8564 27.3675L87.3669 25.4624L95.4908 17.4974L98.1158 18.2008L90.0542 25.9328L94.9018 27.2318L96.6532 22.9818L98.4525 23.464L97.2727 27.867L99.3472 28.4229L98.7743 30.5609L96.6998 30.0051L95.8433 33.2015L93.4724 32.5662Z" fill="#373739"></path><path d="M106.522 28.5113C104.86 35.2685 98.0384 39.3976 91.2862 37.7344C84.534 36.0712 80.4074 29.2455 82.0696 22.4883C83.7318 15.7311 90.5532 11.602 97.3054 13.2652C104.058 14.9284 108.184 21.7542 106.522 28.5113Z" stroke="white" stroke-width="0.765811"></path><path d="M7.40538 27.2784C6.23119 27.0916 5.23047 26.6602 4.4032 25.9841L3.64265 25.3437C2.69974 24.5609 2.22829 23.618 2.22829 22.5149V21.8344C2.22829 20.8026 2.69974 19.8953 3.64265 19.1125L4.4032 18.472C5.26605 17.7693 6.31125 17.4179 7.53881 17.4179H10.1274C11.3549 17.4179 12.4001 17.7693 13.263 18.472L15.2644 20.1666L12.7026 22.2748L10.7812 20.6869C10.6033 20.5446 10.2875 20.4735 9.83381 20.4735H7.83236C7.37869 20.4735 7.04957 20.558 6.84497 20.727L6.07108 21.3408C5.8398 21.5453 5.72416 21.7099 5.72416 21.8344V22.5149C5.72416 22.7195 5.8398 22.9197 6.07108 23.1154L6.84497 23.7425C7.08515 23.9382 7.50323 24.0894 8.09922 24.1962L10.9279 24.6765C12.1021 24.8544 13.1029 25.2814 13.9301 25.9574L14.6907 26.6113C15.6336 27.3851 16.105 28.3281 16.105 29.44V30.0137C16.105 31.0367 15.6336 31.9396 14.6907 32.7224L13.4898 33.7364C12.627 34.4392 11.5817 34.7905 10.3542 34.7905H6.72489C5.49733 34.7905 4.45212 34.4392 3.58927 33.7364L1.10747 31.6683L3.66933 29.5467L6.03105 31.4948C6.23564 31.6549 6.56477 31.735 7.01843 31.735H10.0473C10.5099 31.735 10.839 31.6549 11.0347 31.4948L12.2622 30.4941C12.4935 30.2984 12.6092 30.1383 12.6092 30.0137V29.44C12.6092 29.2354 12.4935 29.0308 12.2622 28.8262L11.4883 28.2124C11.2482 28.0078 10.8256 27.8477 10.2208 27.7321L7.40538 27.2784ZM27.8069 31.735C28.2605 31.735 28.5897 31.6549 28.7943 31.4948L31.0492 29.6401C31.2894 29.4355 31.4095 29.0664 31.4095 28.5326V23.5557C31.4095 23.102 31.2894 22.7774 31.0492 22.5817L28.7943 20.7136C28.5897 20.5535 28.2605 20.4735 27.8069 20.4735H25.3651C24.9114 20.4735 24.5823 20.5535 24.3777 20.7136L22.1227 22.5817C21.8826 22.7774 21.7625 23.102 21.7625 23.5557V28.5326C21.7625 29.0664 21.8826 29.4355 22.1227 29.6401L24.3777 31.4948C24.5823 31.6549 24.9114 31.735 25.3651 31.735H27.8069ZM28.1004 17.4179C29.328 17.4179 30.3732 17.7693 31.236 18.472L33.491 20.3534C34.4339 21.1362 34.9054 22.2036 34.9054 23.5557V28.5326C34.9054 29.9737 34.4339 31.0812 33.491 31.8551L31.236 33.7364C30.3732 34.4392 29.328 34.7905 28.1004 34.7905H25.0716C23.844 34.7905 22.7988 34.4392 21.9359 33.7364L19.681 31.8551C18.7381 31.0812 18.2666 29.9737 18.2666 28.5326V23.5557C18.2666 22.2036 18.7381 21.1362 19.681 20.3534L21.9359 18.472C22.7988 17.7693 23.844 17.4179 25.0716 17.4179H28.1004ZM41.4034 27.4385V34.7905H37.8942V17.4179H50.8903V20.4735H41.4034V24.383H49.7295V27.4385H41.4034ZM61.7916 20.4735V34.7905H58.2957V20.4735H52.6516V17.4179H67.4357V20.4735H61.7916Z" fill="white"></path><path d="M132.808 33.3361C131.989 34.3146 131.229 34.8039 130.526 34.8039H127.484C126.256 34.8039 125.211 34.4525 124.348 33.7498L122.107 31.8684C121.164 31.0856 120.692 29.9781 120.692 28.546V23.5557C120.692 22.2036 121.164 21.1362 122.107 20.3534L124.348 18.472C125.211 17.7693 126.256 17.4179 127.484 17.4179H130.526C131.754 17.4179 132.799 17.7693 133.662 18.472L136.13 20.5402L133.568 22.6617L131.207 20.7136C131.011 20.5535 130.682 20.4735 130.219 20.4735H127.791C127.328 20.4735 126.999 20.5535 126.803 20.7136L124.535 22.5817C124.304 22.7774 124.188 23.102 124.188 23.5557V28.546C124.188 29.0797 124.304 29.4444 124.535 29.6401L126.803 31.5081C126.999 31.6683 127.328 31.7483 127.791 31.7483H130.219C130.682 31.7483 131.011 31.6683 131.207 31.5081L132.367 30.5608C132.661 30.3117 132.808 30.0404 132.808 29.7469V28.4926H129.299V25.4371H136.317V34.7905H132.808V33.3361ZM144.443 30.6275L142.548 34.7905H138.772L146.671 17.4179H149.26L157.159 34.7905H153.383L151.501 30.6275H144.443ZM150.114 27.5719L147.979 22.8352L145.817 27.5719H150.114ZM169.848 29.6535H167.366L163.096 23.2221V34.7905H159.587V17.4179H163.217L168.607 25.6772L173.984 17.4179H177.614V34.7905H174.118V23.2221L169.848 29.6535ZM180.963 17.4179H193.959V20.4735H184.472V24.383H192.798V27.4385H184.472V31.735H193.959V34.7905H180.963V17.4179Z" fill="white"></path><defs><radialGradient id="paint0_radial" cx="0" cy="0" r="1" gradientUnits="userSpaceOnUse" gradientTransform="translate(94.2961 46.5736) rotate(90) scale(2.29896 21.0598)"><stop></stop><stop offset="1" stop-opacity="0"></stop></radialGradient><linearGradient id="paint1_linear" x1="32.5482" y1="5.74718" x2="17.2161" y2="42.1395" gradientUnits="userSpaceOnUse"><stop stop-color="#0269E9"></stop><stop offset="0.359375" stop-color="#0057BC"></stop><stop offset="0.875" stop-color="#0161C9"></stop><stop offset="1" stop-color="#002867"></stop></linearGradient><linearGradient id="paint2_linear" x1="32.5482" y1="5.74718" x2="17.2161" y2="42.1395" gradientUnits="userSpaceOnUse"><stop stop-color="#FFE1AC"></stop><stop offset="0.359375" stop-color="#F8AE2C"></stop><stop offset="0.875" stop-color="#F7AC28"></stop><stop offset="1" stop-color="#E49100"></stop></linearGradient><radialGradient id="paint3_radial" cx="0" cy="0" r="1" gradientUnits="userSpaceOnUse" gradientTransform="translate(94.2954 46.5736) rotate(90) scale(8.42952 34.0786)"><stop stop-color="#002867"></stop><stop offset="0.0001" stop-color="#002867"></stop><stop offset="1" stop-color="#002D76" stop-opacity="0"></stop></radialGradient></defs></svg>