<svg width="70" height="70" viewBox="0 0 70 70" fill="none" xmlns="http://www.w3.org/2000/svg">
    <g clip-path="url(#clip0)">
        <path d="M69.0906 9.03241H65.0955V0.90918H61.1005V9.03241H57.1055V17.0225H69.0906V9.03241Z" fill="white"/>
        <path d="M69.0947 57.2392L67.8306 53.4512L65.0996 54.2023V29.0076H69.0947V21.0176H57.1096V29.0076H61.1046V55.534L56.4775 57.0764L57.7416 60.8643L61.1046 59.7433L60.9714 69.0911H64.9665L65.0996 58.4117L69.0947 57.2392Z"
              fill="white"/>
        <path d="M8.89826 29.0076H12.8933V21.0176H0.908203V29.0076H4.90323V54.2023L2.17226 53.2441L0.908203 57.0321L4.90323 58.4117V69.0911H8.89826V59.7433L12.2613 60.8643L13.5253 57.0764L8.89826 55.534V29.0076Z"
              fill="white"/>
        <path d="M12.8923 9.0324H8.89729V0.90918H4.90226V9.0324H0.907227V17.0225H12.8923V9.0324Z" fill="white"/>
        <path d="M25.0125 0.90918C20.606 0.90918 17.0225 4.62591 17.0225 9.03241V25.0125C17.0225 20.606 20.606 17.0225 25.0125 17.0225C29.419 17.0225 33.0026 20.606 33.0026 25.0125V9.03241C33.0026 4.62591 29.419 0.90918 25.0125 0.90918Z"
              fill="white"/>
        <path d="M17.0225 47.2472L32.8606 57.806C32.95 57.1334 33.0026 56.4525 33.0026 55.7632V54.713L17.0225 44.0601V47.2472Z"
              fill="white"/>
        <path d="M17.0225 55.763C17.0225 61.8154 20.0099 65.7526 25.0125 69.0907C27.9781 67.1119 30.1036 65.6398 31.7297 61.8528L17.0225 52.0483V55.763Z"
              fill="white"/>
        <path d="M29.0067 29.0076V25.0126C29.0067 22.8101 27.2141 21.0176 25.0116 21.0176C22.8092 21.0176 21.0166 22.8101 21.0166 25.0126V29.0076C21.0166 31.2101 22.8092 33.0027 25.0116 33.0027C27.2141 33.0027 29.0067 31.2101 29.0067 29.0076Z"
              fill="white"/>
        <path d="M25.0125 36.9974C20.606 36.9974 17.0225 33.4138 17.0225 29.0073V39.2586L33.0026 49.9115V29.0073C33.0026 33.4138 29.419 36.9974 25.0125 36.9974Z"
              fill="white"/>
        <path d="M44.9867 69.0907C49.9784 65.7599 52.9768 61.8263 52.9768 55.763V52.0483L38.2695 61.8528C39.8956 65.6398 42.0211 67.1119 44.9867 69.0907Z"
              fill="white"/>
        <path d="M44.9871 0.90918C40.5806 0.90918 36.9971 4.62591 36.9971 9.03241V25.0125C36.9971 20.606 40.5806 17.0225 44.9871 17.0225C49.3936 17.0225 52.9772 20.606 52.9772 25.0125V9.03241C52.9772 4.62591 49.3936 0.90918 44.9871 0.90918Z"
              fill="white"/>
        <path d="M36.9971 55.7632C36.9971 56.4525 37.0496 57.1339 37.1391 57.806L52.9772 47.2473V44.0596L36.9971 54.7119V55.7632Z"
              fill="white"/>
        <path d="M48.9813 29.0076V25.0126C48.9813 22.8101 47.1887 21.0176 44.9862 21.0176C42.7838 21.0176 40.9912 22.8101 40.9912 25.0126V29.0076C40.9912 31.2101 42.7838 33.0027 44.9862 33.0027C47.1887 33.0027 48.9813 31.2101 48.9813 29.0076Z"
              fill="white"/>
        <path d="M44.9871 36.9974C40.5806 36.9974 36.9971 33.4138 36.9971 29.0073V49.9105L52.9772 39.2581V29.0073C52.9772 33.4138 49.3936 36.9974 44.9871 36.9974Z"
              fill="white"/>
    </g>
    <defs>
        <clipPath id="clip0">
            <rect width="68.1818" height="68.1818" fill="white" transform="translate(0.90918 0.90918)"/>
        </clipPath>
    </defs>
</svg>
