<svg width="70" height="70" viewBox="0 0 70 70" fill="none" xmlns="http://www.w3.org/2000/svg">
    <path fill-rule="evenodd" clip-rule="evenodd"
          d="M12.6816 9.22953C17.0188 5.47008 22.3145 2.78723 28.1531 1.59674C27.0762 3.9958 26.9353 7.13743 27.236 10.5017C27.8159 16.9886 30.1651 25.4072 32.6079 33.7503C30.4081 34.3974 28.2311 35.0356 26.1062 35.6383C24.4064 35.9195 22.5088 35.4616 20.5414 34.2776C18.1464 32.8364 15.8255 30.4081 14.0351 27.4299C10.5684 21.6633 9.44304 14.5223 12.6816 9.22953ZM7.13028 15.3618C3.21129 20.9133 0.90918 27.6878 0.90918 34.9999C0.90918 35.6835 0.929296 36.3623 0.968969 37.0359C1.05796 37.3998 1.19065 37.6835 1.34347 37.909C1.62296 38.3216 2.06846 38.6859 2.78471 38.9702C4.30407 39.5734 6.72476 39.6933 10.0287 39.2967C12.6696 38.9797 15.6779 38.3618 18.9216 37.5626C18.8333 37.5117 18.7454 37.4599 18.658 37.4072C15.6511 35.5977 12.9358 32.6906 10.9046 29.3118C8.46585 25.2552 6.87311 20.2457 7.13028 15.3618ZM1.73148 42.476C2.98443 48.076 5.61515 53.1557 9.24921 57.3409C14.5314 60.502 21.617 59.3688 27.3461 55.9247C30.3243 54.1343 32.7526 51.8134 34.1939 49.4185C35.3779 47.4511 35.8357 45.5535 35.5546 43.8537C34.9429 41.6975 34.2948 39.4877 33.6379 37.2548C31.9106 37.7632 30.1803 38.2713 28.465 38.7642L28.4673 38.7703C27.954 38.9628 27.4371 39.1065 26.919 39.2053C20.9209 40.9029 15.1753 42.3578 10.4641 42.9233C7.17316 43.3183 4.10228 43.3216 1.73148 42.476ZM37.1424 36.2247C37.6604 37.9843 38.1783 39.7474 38.6805 41.4949L38.6866 41.4927C38.8791 42.006 39.0228 42.5228 39.1215 43.0409C40.8192 49.0389 42.2741 54.7845 42.8396 59.4957C43.2382 62.8164 43.2379 65.9131 42.3691 68.2926C47.7927 67.0976 52.7317 64.6111 56.8473 61.1721C60.356 55.8474 59.2588 48.5172 55.7153 42.623C53.9249 39.6447 51.604 37.2165 49.209 35.7752C46.8142 34.334 44.5227 33.9687 42.5657 34.7026L42.5526 34.6678C40.776 35.1666 38.967 35.6906 37.1424 36.2247ZM62.6003 55.0156C66.6418 49.4524 69.0423 42.6201 69.091 35.2294H69.0162C69.0162 34.1618 68.7922 33.4248 68.4747 32.9016C68.1613 32.3852 67.684 31.9562 66.9719 31.6174C65.465 30.9003 63.0684 30.6644 59.7836 30.958C57.1379 31.1944 54.1176 31.7512 50.8581 32.5072C50.9365 32.5527 51.0146 32.5988 51.0925 32.6456C54.0993 34.4552 56.8146 37.3623 58.8458 40.741C61.3386 44.8876 62.9475 50.0296 62.6003 55.0156ZM68.4267 28.2656C67.2932 22.6085 64.7596 17.4574 61.2025 13.1889C55.8687 9.58854 48.4757 10.676 42.5393 14.2448C39.561 16.0352 37.1328 18.3561 35.6915 20.7511C34.2502 23.1459 33.8849 25.4373 34.6188 27.3944L34.5841 27.4074C35.0739 29.1524 35.5882 30.9286 36.1125 32.7202C44.4874 30.2672 52.9463 27.9019 59.4584 27.3199C62.8524 27.0165 66.0197 27.1625 68.4267 28.2656ZM35.0005 69.091C27.6641 69.091 20.869 66.7736 15.3072 62.831C20.1819 63.0803 25.1795 61.489 29.228 59.0552C32.6068 57.024 35.514 54.3087 37.3235 51.3019C37.3761 51.2144 37.4279 51.1265 37.4789 51.0383C38.2781 54.2819 38.896 57.2902 39.213 59.9311C39.6096 63.235 39.4897 65.6557 38.8865 67.175C38.6021 67.8913 38.2379 68.3368 37.8253 68.6162C37.5397 68.8097 37.161 68.971 36.6439 69.0521C36.0994 69.0779 35.5514 69.091 35.0005 69.091ZM40.6573 11.1143C44.8127 8.6163 49.9677 7.00591 54.9636 7.36212C49.3888 3.32842 42.5454 0.940024 35.1456 0.90918V0.944008C34.078 0.944008 33.3411 1.16802 32.8178 1.48555C32.3014 1.79894 31.8724 2.27627 31.5336 2.98832C30.8165 4.49524 30.5806 6.89177 30.8742 10.1765C31.1107 12.8223 31.6675 15.8425 32.4234 19.102C32.4689 19.0236 32.515 18.9454 32.5619 18.8676C34.3714 15.8608 37.2785 13.1455 40.6573 11.1143Z"
          fill="white"/>
</svg>
