<svg width="70" height="70" viewBox="0 0 70 70" fill="none" xmlns="http://www.w3.org/2000/svg">
    <g clip-path="url(#clip0)">
        <path d="M35.0001 0.90918C16.1724 0.90918 0.90918 16.1724 0.90918 35.0001C0.90918 53.8278 16.1724 69.091 35.0001 69.091C53.8278 69.091 69.091 53.8278 69.091 35.0001C69.0699 16.1813 53.8189 0.930265 35.0001 0.90918ZM36.2169 10.7375L48.0683 6.00007C49.4133 6.60875 50.7144 7.3101 51.9623 8.09912L51.9934 8.11854C53.2196 8.89535 54.3915 9.75484 55.5012 10.6909L55.5967 10.7741C56.0944 11.198 56.5782 11.6369 57.0488 12.0897C57.1081 12.148 57.1703 12.2035 57.2297 12.2628C57.7229 12.7445 58.2007 13.2411 58.6629 13.7521C58.7012 13.7954 58.7378 13.8409 58.7761 13.8841C59.1817 14.3386 59.5717 14.8091 59.9502 15.2874C60.0412 15.4011 60.1322 15.5149 60.2204 15.6286C60.631 16.1602 61.0283 16.7012 61.4033 17.2594L59.0407 27.3024L47.4169 31.1776L36.2197 22.2182L36.2169 10.7375ZM9.7787 15.6353C9.86692 15.5216 9.95681 15.4078 10.0478 15.2946C10.4218 14.8202 10.8085 14.3574 11.208 13.9058C11.2513 13.8581 11.2913 13.8092 11.334 13.7615C11.7934 13.2494 12.2689 12.7533 12.7617 12.2728C12.8182 12.2173 12.8748 12.1591 12.9342 12.108C13.4009 11.658 13.8808 11.2219 14.3741 10.8002L14.4878 10.7048C15.5876 9.77537 16.7484 8.92143 17.9624 8.14795L18.0068 8.11965C19.2475 7.3323 20.5403 6.63206 21.8775 6.02282L33.7833 10.7375V22.2149L22.5855 31.1726L10.9617 27.3047L8.59906 17.2616C8.97747 16.7045 9.37032 16.1646 9.7787 15.6353ZM8.40929 52.4378C8.07526 51.9285 7.75566 51.4097 7.45104 50.8809L7.37724 50.7533C7.07429 50.2273 6.78742 49.6924 6.5172 49.1492L6.50777 49.132C5.93848 47.9889 5.43854 46.8126 5.0113 45.6091V45.598C4.80933 45.0298 4.62511 44.4478 4.45477 43.8624L4.39318 43.6466C4.23726 43.0967 4.09577 42.5407 3.96926 41.9786C3.95816 41.9237 3.94429 41.8715 3.93319 41.8172C3.6541 40.5476 3.45379 39.2626 3.33283 37.9681L10.2703 29.6434L21.8137 33.4909L25.164 46.8909L19.6592 54.2151L8.40929 52.4378ZM42.5673 65.9011C41.9992 66.042 41.416 66.1635 40.8328 66.2728C40.7513 66.2889 40.668 66.3023 40.5865 66.3172C40.0899 66.406 39.5877 66.482 39.0845 66.5442C38.9502 66.5614 38.817 66.5797 38.6833 66.5958C38.2161 66.6502 37.7445 66.6912 37.2717 66.7251C37.123 66.735 36.976 66.75 36.8273 66.7595C36.223 66.7966 35.6138 66.8183 35.0001 66.8183C34.438 66.8183 33.8793 66.8033 33.3238 66.7739C33.2567 66.7739 33.1923 66.7628 33.1252 66.7578C32.6308 66.7295 32.1387 66.6923 31.6476 66.6446L31.591 66.6341C30.5151 66.5175 29.4453 66.3466 28.3867 66.123L21.665 55.5989L27.0833 48.374H42.9169L48.4239 55.6466L42.5673 65.9011ZM66.0753 41.8183C66.0637 41.8727 66.0503 41.9254 66.0387 41.9797C65.9116 42.5413 65.7701 43.0972 65.6148 43.6477L65.5537 43.8635C65.3828 44.4489 65.1992 45.0287 64.9967 45.5991V45.6102C64.5694 46.8137 64.07 47.99 63.5002 49.1331L63.4907 49.1503C63.2189 49.694 62.9326 50.2289 62.6307 50.7544L62.5569 50.882C62.254 51.4124 61.9349 51.9301 61.6003 52.4367L50.3887 54.2045L44.8456 46.8864L48.1942 33.4897L59.7376 29.6423L66.6751 37.967C66.5547 39.262 66.3544 40.5482 66.0753 41.8183Z"
              fill="white"/>
    </g>
    <defs>
        <clipPath id="clip0">
            <rect width="68.1818" height="68.1818" fill="white" transform="translate(0.90918 0.90918)"/>
        </clipPath>
    </defs>
</svg>
