<svg width="53" height="120" viewBox="0 0 53 120" fill="none" xmlns="http://www.w3.org/2000/svg">
    <path d="M12.3357 0H40.4933C47.3273 0 52.8291 5.50765 52.8291 12.349V107.651C52.8291 114.492 47.3273 120 40.4933 120H12.3357C5.50173 120 0 114.492 0 107.651V12.349C0 5.50765 5.50173 0 12.3357 0Z"
          fill="white"/>
    <path d="M33.4997 21.9963L33.5389 22.4022C34.3885 22.9048 34.8325 23.3107 35.7011 23.8712C37.9795 25.3209 40.7797 27.8916 40.4319 36.7249C41.0881 38.6578 41.378 42.4269 41.9572 43.6253C43.1353 46.0027 43.946 47.5491 44.2935 49.7719C44.2935 49.7719 44.6413 53.2511 45.0851 53.5023C47.4405 54.0436 46.7652 54.2755 47.0932 54.7007C47.4598 55.1646 48.8306 55.1453 48.8306 56.421C49.3136 57.0588 49.6805 57.6967 49.9312 58.3925V12.4479C49.9312 7.1904 45.6834 2.93805 40.4507 2.93805H31.3949C32.843 3.45993 33.6733 4.07846 34.1562 5.0449C35.3142 5.14154 36.6859 7.75094 34.5421 11.636C35.4879 12.2932 34.7542 13.2597 34.0785 14.3614C33.8661 14.7093 33.6537 15.3472 33.0165 15.3085C32.167 17.0674 31.182 18.7297 30.4295 18.8264C30.2174 19.097 30.0624 19.8508 30.3906 20.1987C31.492 20.7013 32.8237 21.3585 33.4997 21.9963Z"
          fill="#C80F2E"/>
    <path d="M41.9565 116.939L41.8602 116.959C46.0112 114.427 43.4432 109.633 42.6518 106.811L42.806 106.327C43.0184 105.941 42.5746 105.033 42.5746 105.033C42.0536 104.608 41.9374 102.25 41.6669 101.167C41.2233 99.4083 42.4585 96.335 42.4585 95.2913C42.4585 94.247 41.6669 92.8169 40.2383 91.0003C39.8905 90.5944 38.8479 81.6837 37.9211 79.4223C36.6274 76.3101 36.241 76.8123 34.6969 73.0824C33.5188 70.4727 34.4456 66.6266 31.7814 57.6966L32.3797 57.1361C32.3797 57.1361 30.2558 49.3659 29.5604 47.2397C28.8844 45.1136 27.6299 44.9783 27.6299 44.9783L27.7068 43.8765C27.8037 43.5479 30.2941 37.0728 30.5065 36.8601C30.5256 36.7248 34.0978 34.2701 34.1555 34.6373C34.4448 36.2223 35.8353 44.2824 36.4336 45.5581C37.0321 46.8532 39.0986 50.7962 40.0444 53.251C36.3566 54.1595 33.5953 57.5034 33.5953 61.466C33.5953 66.1436 37.3799 69.9511 42.0525 69.9511C45.6239 69.9511 48.7138 67.7286 49.9492 64.5973L49.9299 107.566C49.9307 112.32 46.5132 116.243 41.9565 116.939Z"
          fill="#C80F2E"/>
    <path d="M28.4207 2.93805C25.3315 4.13644 24.9067 5.47013 24.7911 9.76114C24.2698 9.81913 23.1883 9.31658 23.5554 11.926C23.5554 11.926 23.7485 13.6656 24.4436 13.3756C23.9029 17.1641 24.3325 18.1123 21.8179 18.3818C21.2773 18.4398 20.6206 18.4785 19.8099 18.5171L19.5589 18.865C16.122 19.1936 14.4197 18.9738 12.2022 21.8997C11.3527 23.0207 10.4452 24.6057 9.32532 26.8672C9.32532 26.8672 8.30199 29.3993 7.9928 30.443C7.00808 32.5112 4.59457 37.0922 3.88018 40.0301C3.64875 41.0352 3.20439 41.3445 3.84156 42.7942C4.78765 44.8817 3.2237 45.4229 8.59135 45.2683V46.5053C8.59135 46.5053 7.16255 47.7424 6.85362 48.4768C6.564 49.2307 5.73375 52.9225 5.77264 54.6814C5.86891 59.2624 9.59564 63.0892 10.6959 67.6511L13.1867 67.9993C14.5382 71.1112 20.4465 79.4994 21.8177 80.8527C21.837 80.872 21.8563 80.8916 21.8756 80.9109C22.1842 81.7032 23.7098 82.6892 24.5977 83.675C25.1386 84.1968 27.6297 86.9029 30.9504 89.4739C32.1695 90.4175 33.4803 91.3485 34.8506 92.1413C34.812 92.1217 35.6615 93.8229 36.0863 95.2143C34.3872 96.5864 37.6889 99.0997 38.6929 103.255C38.7508 103.815 37.7272 104.376 39.2529 105.749C39.1563 112.03 37.2451 115.317 40.45 117.056H12.2022C7.06655 116.94 2.91504 112.726 2.91504 107.565V12.4479C2.91504 7.24839 7.06628 3.05403 12.2022 2.93805H28.4207Z"
          fill="#1D4289"/>
</svg>
