<svg width="94" height="91" viewBox="0 0 94 91" fill="none" xmlns="http://www.w3.org/2000/svg">
    <path d="M46.9902 24.4328C51.6933 25.7414 55.2001 26.3587 55.2001 26.3587C53.1827 24.3233 51.3775 22.2304 49.8147 20.251C52.5445 16.358 54.695 13.6634 54.695 13.6634C51.7994 14.3103 49.0622 15.1012 46.6107 15.9136C44.2815 12.5399 43.0027 10.1655 43.0027 10.1655C42.3229 12.6979 41.9948 15.2337 41.8847 17.6156C37.9935 19.1357 35.5615 20.3777 35.5615 20.3777C37.6654 21.3341 39.8501 22.1686 41.9655 22.8871C42.3082 27.4673 43.2263 30.6467 43.2263 30.6467C44.4064 28.5225 45.7032 26.4097 46.9902 24.4328Z"
          fill="#E8E8E8"/>
    <path d="M68.458 23.2312C67.8182 24.2411 66.8397 24.9612 65.6956 25.4682C65.5389 22.2288 65.0476 19.3621 65.0476 19.3621C64.0707 22.0238 63.0326 24.3859 62.0321 26.4246C58.5841 26.8707 55.1997 26.3588 55.1997 26.3588C57.0555 28.604 58.4976 29.9357 59.6646 30.8344C57.9189 33.8023 56.6548 35.3866 56.6548 35.3866C59.0949 34.8237 61.0348 33.8887 62.5781 32.7809C63.2097 33.2179 63.7532 33.706 64.2902 34.5323C64.2902 34.5323 65.2859 33.1085 65.627 29.8106C68.0924 26.5588 68.458 23.2312 68.458 23.2312Z"
          fill="#E8E8E8"/>
    <path d="M67.332 14.2518C66.2328 11.7588 64.6495 9.87816 62.9227 8.46172C61.4504 5.34241 59.7554 3.9021 59.7554 3.9021C59.8982 4.61979 59.7897 5.43212 59.5253 6.2708C55.8585 4.4379 52.5142 4.18275 52.5142 4.18275C54.6442 5.59097 56.5351 7.33663 58.1591 9.13661C56.6632 11.5917 54.6956 13.6633 54.6956 13.6633C57.3038 13.0707 59.4028 12.8213 61.0824 12.7761C63.6596 16.3555 65.0478 19.362 65.0478 19.362C65.0976 16.9423 64.8576 14.832 64.4569 13.0106C66.6392 13.4304 67.332 14.2518 67.332 14.2518Z"
          fill="#E8E8E8"/>
    <path d="M52.5145 4.18281C50.7354 3.28076 49.0331 2.65196 47.4498 2.21987C49.4656 0.500545 51.3402 0.0651586 51.3402 0.0651586C48.1043 -0.0640581 45.3214 0.525236 42.9923 1.42893C39.5141 1.1491 37.2984 1.75732 37.2984 1.75732C37.819 2.1532 38.2589 2.86101 38.7086 3.70709C35.769 5.7367 34.2764 7.8519 34.2764 7.8519C36.0481 6.96467 37.9284 6.29225 39.7818 5.7795C39.9842 6.15398 40.1963 6.52764 40.4289 6.89307C41.6563 8.82062 43.0037 10.1655 43.0037 10.1655C43.4852 7.8552 44.3136 6.05604 45.2659 4.66017C49.4028 4.07993 52.5145 4.18281 52.5145 4.18281Z"
          fill="#E8E8E8"/>
    <path d="M30.1829 11.2988C31.2911 10.2182 32.6418 9.05358 34.2764 7.85195C34.2764 7.85195 32.7683 7.85195 31.1744 8.261C32.2288 5.68654 33.3983 4.2594 33.3983 4.2594C33.3983 4.2594 26.6859 9.07416 25.4111 17.7267C25.4111 17.7267 25.9751 16.1621 27.888 13.8025C28.647 15.5177 29.521 16.5975 29.521 16.5975C29.5324 14.6222 29.7977 12.847 30.1829 11.2988Z"
          fill="#E8E8E8"/>
    <path d="M35.5629 20.3777C33.2329 20.4518 31.4057 20.6575 29.9824 20.9201C29.5825 18.4057 29.5213 16.5975 29.5213 16.5975C28.3706 18.3686 27.6255 20.0764 27.1644 21.6666C25.542 22.2731 25.1323 22.86 25.1323 22.86C25.3853 23.7315 25.8913 24.5801 26.5303 25.3752C26.3304 29.1422 27.539 31.6311 27.539 31.6311C27.8108 30.3109 28.3526 29.0253 29.0333 27.8237C31.0205 29.4303 32.9889 30.478 32.9889 30.478C32.0618 28.8015 31.3787 26.9241 30.8777 25.1068C33.1056 22.2863 35.5629 20.3777 35.5629 20.3777Z"
          fill="#E8E8E8"/>
    <path d="M47.0892 39.6203C47.0892 39.6203 45.1346 38.8335 42.3362 37.2434C42.4358 35.5471 42.6953 33.3875 43.2274 30.6467C43.2274 30.6467 41.0035 32.8665 38.1235 34.5866C36.4521 33.422 34.6951 32.0541 32.9886 30.478C32.9886 30.478 33.8194 33.0665 35.4198 35.9167C33.901 36.4895 32.3357 36.7553 30.9043 36.4022C30.9043 36.4022 32.5953 38.5314 37.8109 39.4351C39.2571 41.166 41.019 42.5956 43.0756 43.0927C43.0756 43.0927 42.4562 42.4071 42.3183 39.8343C43.7407 39.8541 45.3248 39.7907 47.0892 39.6203Z"
          fill="#E8E8E8"/>
    <path d="M56.5433 39.403C56.9914 37.3216 56.6551 35.3866 56.6551 35.3866C55.3355 37.3002 54.0387 38.7569 52.8382 39.8664C49.6089 40.0351 47.0888 39.6203 47.0888 39.6203C47.0888 39.6203 48.53 41.0721 50.1924 41.91C47.998 43.2787 46.5273 43.4005 46.5273 43.4005C56.1336 43.6054 61.8986 37.2804 61.8986 37.2804C60.2794 38.3578 58.4048 39.0162 56.5433 39.403Z"
          fill="#E8E8E8"/>
    <path d="M36.4711 64.2274C38.9006 61.4242 42.4727 59.6521 46.4544 59.6521C50.5488 59.6521 54.2115 61.5262 56.6418 64.4694L57.2841 63.8628C54.6946 60.7575 50.8124 58.783 46.4732 58.783C42.2466 58.783 38.4534 60.6554 35.8647 63.625L36.4711 64.2274Z"
          fill="#E8E8E8"/>
    <path d="M63.0371 56.8421C58.9036 52.4603 53.0644 49.7262 46.5936 49.7262C40.0452 49.7262 34.144 52.5237 30.0031 56.9994L29.3037 56.2825C33.6527 51.6891 39.7857 48.8282 46.5773 48.8282C53.3182 48.8282 59.4039 51.643 63.7471 56.1722L63.0371 56.8421Z"
          fill="#E8E8E8"/>
    <path d="M67.6741 76.1759C64.8039 76.1759 63.0591 73.7488 63.0591 71.0871C63.0591 68.3233 65.0928 66.3168 67.7468 66.3168C70.6888 66.3168 72.4622 68.6715 72.4622 71.2616C72.4622 74.329 70.2571 76.1776 67.6741 76.1759ZM67.5142 67.7126C65.7285 67.7126 65.194 69.4295 65.194 70.5933C65.194 72.2937 65.9432 74.7809 68.0055 74.7809C69.4753 74.7809 70.3297 73.4583 70.3297 71.8714C70.3297 70.185 69.6793 67.7126 67.5142 67.7126Z"
          fill="#E8E8E8"/>
    <path d="M50.0949 74.7956C50.0949 75.3199 50.197 75.5075 51.0343 75.6688V76.0318C50.1251 75.9882 49.5612 75.9454 49.0283 75.9454C48.4938 75.9454 47.9315 75.989 47.2974 76.0318V75.6688C47.8613 75.5676 47.9617 75.3199 47.9617 74.6351V67.5233C47.9617 67.1167 47.787 66.9266 47.2974 66.9126V66.5076H51.5664C54.2358 66.5076 55.2021 67.7891 55.2021 69.4747C55.2005 71.2796 53.8441 72.3841 51.985 72.3841C51.2791 72.3841 50.2394 72.0203 50.2394 71.7158C50.2394 71.5833 50.3251 71.5833 50.4573 71.5833C50.5854 71.5833 50.7739 71.6286 50.96 71.6286C52.4739 71.6286 53.0655 70.7701 53.0655 69.5611C53.0655 68.2541 52.2584 67.7883 50.9886 67.7883L50.0941 67.8829V74.7956"
          fill="#E8E8E8"/>
    <path d="M57.9895 67.436C57.9895 67.0277 57.8157 66.8393 57.3252 66.8253V66.4442C57.9593 66.4895 58.524 66.5315 59.0578 66.5315C59.5907 66.5315 60.1546 66.4887 60.7855 66.4442V66.8253C60.2983 66.8401 60.1228 67.0277 60.1228 67.436V75.0573C60.1228 75.4639 60.2966 75.654 60.7855 75.668V76.0318C60.1522 75.9898 59.5891 75.9462 59.0578 75.9453C58.524 75.9453 57.9593 75.9906 57.3252 76.0318V75.6688C57.8165 75.654 57.9895 75.4647 57.9895 75.0581V67.436Z"
          fill="#E8E8E8"/>
    <path d="M75.3529 67.4269C75.3529 67.0204 75.1816 66.8319 74.6895 66.8179V66.4368C75.3244 66.4821 75.8859 66.5241 76.4204 66.5249C76.8105 66.5249 77.2422 66.5249 77.6894 66.4368L81.6704 72.9421H81.6981V67.6302C81.6981 66.8763 81.224 66.8179 80.833 66.8179V66.4385C81.308 66.4821 81.7691 66.5249 82.2171 66.5249C82.6937 66.5249 83.1704 66.4813 83.6314 66.4385V66.8179C83.1402 66.8327 82.968 67.0204 82.968 67.4269V76.0334H81.437L76.6497 68.5199H76.6212V74.8474C76.6212 75.603 77.0986 75.6622 77.4879 75.6622V76.0252C77.0113 75.9799 76.5493 75.9388 76.1013 75.9388C75.6263 75.9388 75.1505 75.9807 74.6895 76.0252V75.6614C75.1799 75.6458 75.3529 75.4556 75.3529 75.0491V67.4269Z"
          fill="#E8E8E8"/>
    <path d="M86.5818 72.7249C86.8772 74.3561 87.9406 75.1199 89.5295 75.1199C90.4052 75.1199 91.6653 74.8656 91.6653 73.7438C91.6653 72.8442 90.7471 72.6039 90.0624 72.3957L89.008 72.0813C87.495 71.6327 85.9795 70.9883 85.9795 69.2196C85.9795 66.9003 88.2066 66.1974 90.4191 66.1974C91.3543 66.1974 92.3206 66.3612 93.1808 66.6764C93.1808 67.7537 93.2395 68.6665 93.2991 69.4443H92.9286C92.616 68.0673 91.5037 67.4245 90.1677 67.4245C89.4259 67.4245 88.1772 67.6624 88.1772 68.6961C88.1772 69.52 88.8905 69.7578 89.4985 69.9397L91.0564 70.3883C92.5597 70.8212 93.9536 71.3768 93.9536 73.3224C93.9536 75.2993 91.9786 76.3471 89.5581 76.3471C88.4743 76.3471 87.3326 76.1676 86.3353 75.8088C86.3353 74.6253 86.2896 73.5932 86.2186 72.7241H86.5818"
          fill="#E8E8E8"/>
    <path d="M11.5919 67.4343C11.5919 67.0261 11.4205 66.8368 10.9292 66.8236V66.4442C11.5641 66.4878 12.1248 66.5298 12.6577 66.5298C13.1939 66.5298 13.7562 66.487 14.3886 66.4442V66.8236C13.9006 66.8376 13.7268 67.0261 13.7268 67.4343V70.315H17.2172V67.4343C17.2172 67.0261 17.0434 66.8368 16.5529 66.8236V66.4442C17.1862 66.4878 17.7518 66.5298 18.2839 66.5298C18.8168 66.5298 19.3799 66.487 20.014 66.4442V66.8253C19.5244 66.8376 19.3505 67.0261 19.3505 67.4343L19.3481 75.0573C19.3481 75.4639 19.5244 75.654 20.0132 75.668V76.0392C19.3791 75.9947 18.816 75.9519 18.2831 75.9519C17.751 75.9519 17.1854 75.9955 16.5521 76.0392V75.668C17.0434 75.6532 17.2164 75.4639 17.2164 75.0573V71.7125H13.726V75.0573C13.726 75.4639 13.8965 75.654 14.3878 75.668V76.0392C13.7529 75.9947 13.1931 75.9519 12.6569 75.9519C12.124 75.9519 11.5617 75.9955 10.9268 76.0392V75.668C11.4197 75.6532 11.5902 75.4639 11.5902 75.0573V67.4343"
          fill="#E8E8E8"/>
    <path d="M25.3529 71.8714C25.7291 70.8393 26.1902 69.6904 26.5208 68.5258H26.551C26.839 69.9957 27.0822 70.9257 27.3858 71.8714H25.3529ZM21.8617 76.0318C22.3676 75.9882 22.8573 75.9454 23.3616 75.9454C23.8529 75.9454 24.3581 75.989 24.8469 76.0318V75.6689C24.372 75.6401 24.1688 75.4648 24.1688 75.2039C24.1688 75.0582 24.2128 74.8985 24.2855 74.6952L24.9196 72.9784H27.731L28.1921 74.3882C28.2664 74.5775 28.3374 74.9125 28.3374 75.1166C28.3374 75.4508 28.1505 75.5685 27.6151 75.6697V76.0318C28.2362 75.9882 28.8564 75.9454 29.4759 75.9454C30.0814 75.9454 30.7025 75.989 31.3064 76.0318V75.6689C30.8755 75.552 30.6592 75.3635 30.4413 74.7232L27.7882 66.4451C27.3409 66.4888 26.879 66.5307 26.4334 66.5307C25.9862 66.5307 25.539 66.4879 25.0771 66.4451V66.8262C25.4672 66.8262 25.6263 67.0575 25.6263 67.2023C25.6263 67.3488 25.5251 67.5521 25.4394 67.7702L22.6125 74.9989C22.4664 75.3767 22.2795 75.6104 21.8608 75.6681V76.0318H21.8617Z"
          fill="#E8E8E8"/>
    <path d="M34.2195 68.8022C34.2334 68.3956 34.2636 67.9874 34.2636 67.4072C34.2636 66.9537 34.1624 66.8985 33.6148 66.8253V66.4442C34.0465 66.4878 34.5664 66.5298 35.087 66.5298C35.6052 66.5298 36.1243 66.487 36.6417 66.4442L39.1692 73.1882L41.4314 66.4442C41.9357 66.4895 42.4278 66.5298 42.9306 66.5298C43.4365 66.5298 43.9409 66.4887 44.4322 66.4442V66.8253C43.9286 66.8689 43.8544 67.0277 43.8544 67.4228C43.8544 67.8277 43.9115 68.4821 43.9548 68.9783L44.4159 75.1882C44.4469 75.5676 44.8647 75.6252 45.1528 75.6688V76.0318C44.5317 75.9881 43.8976 75.9454 43.2758 75.9454C42.6417 75.9454 42.0239 75.989 41.4306 76.0318V75.6688C42.1357 75.5816 42.325 75.4499 42.325 74.7816C42.325 74.4326 42.2809 73.7767 42.2401 73.2976L41.9088 68.9627H41.8786L39.4719 76.1124H38.2592L35.5057 68.8755H35.4763L35.3612 73.1388C35.3457 73.8943 35.3163 74.2861 35.3163 74.6787C35.3163 75.4063 35.389 75.5676 36.2549 75.6688V76.0318C35.6771 75.9881 35.1442 75.9454 34.5957 75.9454C34.0628 75.9454 33.5275 75.989 33.0811 76.0318V75.6688C33.6433 75.6252 33.8751 75.4952 33.9037 74.8828L34.2195 68.8022Z"
          fill="#E8E8E8"/>
    <path d="M8.75677 75.4992C7.76847 76.2622 6.35254 76.5708 5.4279 76.5708C1.98968 76.5708 0.0473633 73.8787 0.0473633 71.1232C0.0473633 68.301 1.98968 65.5767 5.71435 65.5767C7.02174 65.5767 7.95862 65.8277 8.32342 65.9718C8.32342 67.0746 8.38299 68.138 8.46297 69.1915H8.04676C7.79132 67.8458 6.86342 67.1339 5.52338 67.1339C3.70838 67.1339 2.30877 68.5742 2.30877 71.0079C2.30877 72.8408 3.8055 74.9141 5.9045 74.9141C6.79731 74.9141 8.08185 74.4235 8.93957 73.6935L8.75677 75.4992Z"
          fill="#E8E8E8"/>
    <path d="M24.3688 81.291C24.3688 80.9774 24.2358 80.8309 23.8579 80.8202V80.5124C24.3476 80.5461 24.7817 80.5799 25.1947 80.5799C25.6623 80.5799 26.3388 80.5461 26.6637 80.5124V80.8202C26.0965 80.8424 26.0181 81.1223 26.0181 81.4383V86.9354H28.0771C28.8108 86.9354 29.1128 86.5996 29.3005 85.7461H29.6612C29.5265 86.4761 29.4049 87.1946 29.3943 87.9238H23.8579V87.6177C24.2358 87.6053 24.3688 87.4613 24.3688 87.1452V81.291Z"
          fill="#E8E8E8"/>
    <path d="M31.4551 81.3297C31.4551 81.0145 31.322 80.868 30.9434 80.8573V80.5494H36.5687C36.5834 81.1675 36.6022 81.6688 36.6593 82.2762H36.3533C36.2431 81.6581 36.0872 81.4457 35.4849 81.4457H33.1052V83.6153H34.584C35.0859 83.6153 35.1626 83.4457 35.2295 83.0424H35.5339C35.5005 83.3222 35.467 83.807 35.467 84.1115C35.467 84.4136 35.5005 84.9074 35.5339 85.1782H35.2295C35.1626 84.7724 35.0859 84.6037 34.584 84.6037H33.1052V86.9362H35.6082C36.2096 86.9362 36.3973 86.7354 36.5875 85.7897H36.9588C36.8593 86.7123 36.8364 87.3082 36.8258 87.9247H30.9434V87.6185C31.322 87.6062 31.4551 87.4621 31.4551 87.1461V81.3297Z"
          fill="#E8E8E8"/>
    <path d="M38.2935 87.6202C38.6158 87.5749 38.7611 87.3971 38.8745 87.1058L41.056 81.5388C41.1237 81.3709 41.1988 81.2137 41.1988 81.1026C41.1988 80.989 41.0796 80.8112 40.7777 80.8112V80.5059C41.1327 80.5396 41.4795 80.5733 41.8247 80.5733C42.1691 80.5733 42.5257 80.5396 42.8718 80.5059L44.921 86.8926C45.0867 87.3848 45.254 87.5305 45.5869 87.621V87.9255C45.1209 87.8934 44.6427 87.8597 44.1751 87.8597C43.696 87.8597 43.2162 87.8934 42.7371 87.9255V87.621C43.1509 87.542 43.2945 87.4515 43.2945 87.1947C43.2945 87.0391 43.2382 86.7799 43.1827 86.6334L42.8261 85.5486H40.6536L40.164 86.8704C40.1076 87.0251 40.075 87.1494 40.075 87.2622C40.075 87.463 40.2309 87.5963 40.5989 87.621V87.9255C40.2227 87.8934 39.831 87.8597 39.4515 87.8597C39.063 87.8597 38.6827 87.8934 38.2935 87.9255V87.6202ZM42.5592 84.6976C42.3258 83.9675 42.1357 83.2523 41.9145 82.1207H41.8916C41.6346 83.0169 41.2787 83.9017 40.9907 84.6976H42.5592Z"
          fill="#E8E8E8"/>
    <path d="M51.5463 85.3C51.5463 84.8498 51.3447 84.8276 50.8453 84.8161V84.4416C51.2998 84.4753 51.7585 84.5091 52.2261 84.5091C52.7256 84.5091 53.2161 84.4753 53.7163 84.4416V84.7938C53.327 84.8054 53.1263 84.9066 53.1263 85.4111V87.9247H52.4791L52.2253 87.1732C51.5218 87.8374 50.7865 88.072 50.0284 88.072C47.9351 88.072 46.5991 86.3313 46.5991 84.3091C46.5991 81.8721 48.2142 80.3964 50.6192 80.3964C51.3888 80.3964 52.2163 80.5412 52.8153 80.919C52.8153 81.4729 52.8382 82.1033 52.8831 82.8795H52.5632C52.4171 81.8786 51.4786 81.3873 50.5523 81.3873C49.005 81.3873 48.2485 82.5799 48.2485 84.0284C48.2485 85.4226 49.0286 86.9946 50.3189 86.9946C51.1105 86.9946 51.5455 86.6243 51.5455 86.1066V85.3"
          fill="#E8E8E8"/>
    <path d="M55.9528 81.291C55.9528 80.9774 55.8206 80.8309 55.4419 80.8202V80.5124C55.7993 80.5461 56.2547 80.5799 56.7224 80.5799C57.301 80.5799 57.7588 80.5461 58.2036 80.5124V80.8202C57.7245 80.8424 57.6029 80.9321 57.6029 81.37V85.5667C57.6029 86.8366 58.126 87.0852 59.0287 87.0852C59.9304 87.0852 60.4544 86.8136 60.4544 85.5667V81.37C60.4544 80.9321 60.332 80.8424 59.8521 80.8202V80.5124C60.2993 80.5461 60.7531 80.5799 61.3333 80.5799C61.8001 80.5799 62.258 80.5461 62.6138 80.5124V80.8202C62.2351 80.8317 62.1013 80.9774 62.1013 81.291V85.3321C62.1013 87.4078 61.0322 88.0712 59.0278 88.0712C57.0211 88.0712 55.9511 87.4078 55.9511 85.4868V81.291"
          fill="#E8E8E8"/>
    <path d="M64.9717 81.3297C64.9717 81.0145 64.8386 80.868 64.46 80.8573V80.5494H70.087C70.0976 81.1675 70.1204 81.6688 70.1759 82.2762H69.8715C69.7589 81.6581 69.6055 81.4457 69.0015 81.4457H66.6202V83.5815H68.1006C68.5992 83.5815 68.6792 83.4136 68.7461 83.0087H69.0497C69.0162 83.2893 68.9852 83.7733 68.9852 84.0745C68.9852 84.3799 69.0162 84.8737 69.0497 85.1445H68.7461C68.6792 84.7403 68.5992 84.57 68.1006 84.57H66.6202V86.9362H69.1256C69.7254 86.9362 69.9164 86.7354 70.1033 85.7897H70.4754C70.3742 86.7123 70.353 87.3082 70.3408 87.9247H64.46V87.6185C64.8386 87.6062 64.9717 87.4621 64.9717 87.1461V81.3297Z"
          fill="#E8E8E8"/>
    <path fill-rule="evenodd" clip-rule="evenodd"
          d="M72.2063 90.9526C72.931 90.9526 73.5496 90.3855 73.5496 89.6078C73.5496 88.8358 72.9302 88.2687 72.2063 88.2687C71.4734 88.2687 70.854 88.8349 70.854 89.6078C70.854 90.3847 71.4734 90.9526 72.2063 90.9526ZM71.12 89.6078C71.12 88.9724 71.595 88.4934 72.2063 88.4934C72.8061 88.4934 73.2811 88.9724 73.2811 89.6078C73.2811 90.2538 72.8061 90.7287 72.2063 90.7287C71.595 90.7287 71.12 90.2538 71.12 89.6078ZM71.9239 89.7131H72.1924L72.5964 90.3847H72.8543L72.4185 89.7041C72.6445 89.6752 72.8167 89.5534 72.8167 89.2753C72.8167 88.9716 72.6372 88.8349 72.2748 88.8349H71.6897V90.3847H71.9231V89.7131H71.9239ZM71.9239 89.5139V89.0341H72.2414C72.403 89.0341 72.5752 89.0695 72.5752 89.2613C72.5752 89.5008 72.4005 89.5139 72.2022 89.5139H71.9239Z"
          fill="#E8E8E8"/>
    <path d="M31.4062 57.4371L32.342 56.6691L34.5267 59.3665C34.9761 59.9176 35.6981 60.3856 36.673 59.5588C37.5099 58.7365 37.1334 58.0361 36.4961 57.2717L34.5541 54.8637L35.5092 54.0689L37.663 56.7571C38.1571 57.3442 38.389 57.8523 38.389 58.559C38.389 59.3813 37.9292 60.0681 37.2755 60.6326C36.8843 60.9602 36.2597 61.2412 35.6068 61.2412C34.6892 61.2412 34.0992 60.797 33.659 60.2731L31.4062 57.4371Z"
          fill="#E8E8E8"/>
    <path d="M41.0244 56.4809L40.2718 52.7755C40.1588 52.3059 40.2461 52.0915 40.7527 51.9708L44.2358 51.2452L44.4822 52.3957L41.5124 52.9891L41.7991 54.3193L44.5016 53.7514L44.756 54.8624L42.0288 55.4422L42.1706 56.0816C42.3053 56.6074 42.5302 56.7208 43.1148 56.5867L45.2317 56.1471L45.4926 57.2846L43.3232 57.734C41.6365 58.0371 41.2134 57.278 41.0244 56.4809Z"
          fill="#E8E8E8"/>
    <path d="M49.5495 57.6844L49.0461 57.5672C48.5545 57.4333 48.3444 57.3229 48.575 56.5357L49.4914 53.0115C49.8951 51.5812 51.1377 51.7531 51.8856 51.9247L54.0055 52.4844L53.7022 53.6201L51.7501 53.0896C51.2046 52.9319 50.7986 52.8424 50.6336 53.4541L50.4626 54.157L53.1246 54.8436L52.8277 55.95L50.1561 55.2438L49.5495 57.6844Z"
          fill="#E8E8E8"/>
    <path d="M54.637 59.5449L53.5005 58.8681L58.5781 55.5627C58.9391 55.3106 59.238 55.2862 59.4699 55.4878L59.6963 55.6909C59.9068 55.9062 59.9603 55.9401 59.7006 56.8431L58.1329 62.3768L57.1197 61.4396L57.4488 60.3072L56.3001 59.383L57.3262 58.7192L57.8038 59.1032L58.3975 57.0791L54.637 59.5449Z"
          fill="#E8E8E8"/>
</svg>
