<svg width="84" height="120" viewBox="0 0 84 120" fill="none" xmlns="http://www.w3.org/2000/svg">
    <g clip-path="url(#clip0)">
        <path d="M46.3324 75.276L49.7535 76.176L50.11 74.8L46.6944 73.9057L46.8807 73.1832C47.0881 72.3892 47.4117 72.2689 48.1267 72.4565L50.8792 73.1776L51.2445 71.7828L48.4088 71.0404C47.0956 70.6948 45.874 71.0049 45.4428 72.6401L44.1896 77.4365C44.0953 77.786 44.2743 78.0512 44.5976 78.1372L45.5211 78.3781L46.3324 75.276ZM39.0173 71.6237L38.7308 70.21L34.0093 71.1732C33.6828 71.2364 33.4838 71.4928 33.5569 71.8528L34.548 76.7108C34.8845 78.3652 36.0845 78.742 37.4149 78.4696L40.2905 77.8849L40.0012 76.4745L37.2143 77.042C36.4925 77.1852 36.1733 77.0504 36.0098 76.2436L35.8639 75.5169L39.3322 74.8117L39.0501 73.4196L35.5786 74.1232L35.2293 72.3944L39.0173 71.6237ZM27.5019 81.3636C26.9508 81.3036 26.6084 81.0712 26.0873 80.4292L23.4134 77.1396L22.2289 78.1044L25.1489 81.7008C25.7648 82.4504 26.4533 82.8505 27.2697 82.9281C28.1877 83.0125 29.0041 82.7416 29.8145 82.0836C30.6209 81.424 31.0573 80.6816 31.1608 79.7644C31.2539 78.9488 31.0034 78.1904 30.3932 77.4365L27.4731 73.8428L26.2875 74.8L28.9569 78.0924C29.4824 78.7344 29.6343 79.1189 29.5811 79.6677C29.5424 80.1205 29.2718 80.572 28.8594 80.9048C28.4502 81.2432 27.9475 81.418 27.5019 81.3636ZM58.5563 75.8276C58.9084 76.1028 58.884 76.3836 58.7953 76.656L56.577 84.3737L55.3166 83.2156L55.7434 81.7292L54.2628 80.588L55.5476 79.758L56.1706 80.2412L56.9383 77.598L52.0949 80.7416L50.673 79.9448L57.3938 75.5772C57.6388 75.4208 57.8978 75.3276 58.2546 75.6L58.5563 75.8276ZM28.861 86.7289L27.9587 85.936C31.2855 82.1404 36.1689 79.742 41.6077 79.742C47.0497 79.742 51.9302 82.14 55.2551 85.936L54.3571 86.7289C51.2509 83.1825 46.694 80.942 41.6073 80.942C36.5269 80.9424 31.9673 83.1829 28.861 86.7289ZM20.4462 77.2224L19.5898 76.3852C25.1793 70.6572 32.9783 67.1052 41.6081 67.1052C50.2391 67.1052 58.0412 70.6572 63.6291 76.3852L62.7727 77.2224C57.4026 71.7196 49.9042 68.3008 41.6081 68.3008C33.3132 68.3008 25.8163 71.7196 20.4462 77.2224Z"
              fill="#E8E8E8"/>
        <path d="M45.6656 116.328H48.6787V117.026C48.1904 117.57 47.4099 117.989 46.4461 117.989C44.7589 117.989 43.4889 116.998 43.4889 114.946C43.4889 112.893 44.8708 111.901 46.1955 111.901C47.4099 111.901 48.1904 112.488 48.5113 113.577L50.6465 112.949C50.1437 111.12 48.7203 109.89 46.2243 109.89C43.5448 109.89 41.2578 111.818 41.2578 114.946C41.2578 118.073 43.5177 120 46.2515 120C48.3722 120 49.6826 119.163 50.758 117.85V114.582H45.6656V116.328Z"
              fill="#E8E8E8"/>
        <path d="M25.3262 115.906H29.4806V113.896H25.3262V112.069H29.8427V110.059H23.0947V119.826H29.9546V117.817H25.3262V115.906Z"
              fill="#E8E8E8"/>
        <path d="M17.4186 110.059H15.1875V119.827H22.047V117.817H17.4186V110.059Z" fill="#E8E8E8"/>
        <path d="M34.9458 110.061L30.9863 119.827H33.5095L34.2212 117.972H38.0404L38.7509 119.827H41.2741L37.3159 110.061H34.9458ZM34.9873 115.962L36.1314 112.962L37.2743 115.962H34.9873Z"
              fill="#E8E8E8"/>
        <path d="M57.8152 115.864C57.8152 117.176 57.1451 117.986 55.919 117.986C54.6918 117.986 54.0228 117.176 54.0228 115.864V110.06H51.793V115.989C51.793 118.711 53.6748 119.994 55.9186 119.994C58.1625 119.994 60.0459 118.697 60.0459 115.989V110.06H57.8148V115.864H57.8152Z"
              fill="#E8E8E8"/>
        <path d="M63.5426 117.816V115.906H67.697V113.896H63.5426V112.068H68.0595V110.059H61.3115V119.826H68.171V117.816H63.5426Z"
              fill="#E8E8E8"/>
        <path d="M22.1164 99.2331C22.1164 101.283 21.071 102.547 19.1548 102.547C17.2387 102.547 16.1933 101.283 16.1933 99.2331V90.1651H12.709V99.4295C12.709 103.681 15.649 105.685 19.1548 105.685C22.6607 105.685 25.6007 103.658 25.6007 99.4295V90.1651H22.1164V99.2331Z"
              fill="#E8E8E8"/>
        <path d="M3.48428 99.2987H9.9729V96.1595H3.48428V93.3039H10.54V90.1647H0V105.424H10.7146V102.284H3.48428V99.2987Z"
              fill="#E8E8E8"/>
        <path d="M77.513 90.1647H73.8113L67.626 105.424H71.5686L72.68 102.525H78.6459L79.7572 105.424H83.6983L77.513 90.1647ZM73.8772 99.3859L75.6631 94.6987L77.449 99.3859H73.8772Z"
              fill="#E8E8E8"/>
        <path d="M69.1669 95.2227C69.1669 91.9087 66.7052 90.1655 63.6993 90.1655H57.7334V105.424H61.2177V100.28H63.6993C66.7048 100.28 69.1669 98.5367 69.1669 95.2227ZM63.5259 97.1407H61.2173V93.3047H63.5259C65.0724 93.3047 65.6826 94.1103 65.6826 95.2227C65.6826 96.3335 65.0724 97.1407 63.5259 97.1407Z"
              fill="#E8E8E8"/>
        <path d="M39.321 95.0487C39.321 92.0615 36.9037 90.1651 33.8119 90.1651H27.7568V105.424H31.2411V99.9311H33.1141L36.1632 105.424H40.0827L36.6859 99.2987C38.2325 98.4275 39.321 97.0527 39.321 95.0487ZM33.8546 96.7919H31.2411V93.3043H33.8546C35.2925 93.3043 35.8367 94.0455 35.8367 95.0487C35.8367 96.0507 35.2925 96.7919 33.8546 96.7919Z"
              fill="#E8E8E8"/>
        <path d="M48.3395 89.8159C43.8557 89.8159 40.9629 92.8447 40.9629 97.7887C40.9629 102.734 43.8557 105.762 48.3395 105.762C52.8216 105.762 55.716 102.734 55.716 97.7887C55.716 92.8447 52.822 89.8159 48.3395 89.8159ZM48.3395 102.625C46.1627 102.625 44.4444 101.057 44.4444 97.7887C44.4444 94.5219 46.1627 92.9539 48.3395 92.9539C50.5162 92.9539 52.2346 94.5219 52.2346 97.7887C52.235 101.057 50.5162 102.625 48.3395 102.625Z"
              fill="#E8E8E8"/>
        <path d="M54.6853 5.9617L54.6825 5.9589C54.6909 5.9445 54.6969 5.9273 54.6969 5.9073C54.6969 5.8641 54.6726 5.8297 54.6398 5.8069L54.6426 5.8057L45.6004 0.628105L45.5992 0.630905C45.5804 0.622505 45.5632 0.613705 45.5405 0.613705C45.4789 0.613705 45.4318 0.656505 45.4202 0.716905H45.4174C44.9506 2.6877 40.7358 21.8729 47.5182 44.7621C45.0849 29.7497 50.9449 13.2925 54.6853 5.9617Z"
              fill="#E8E8E8"/>
        <path d="M43.8824 59.9604V59.962C45.9016 59.8188 47.8606 59.4588 49.7408 58.91V58.9072C49.7851 58.8872 49.8151 58.844 49.8151 58.7952C49.8151 58.7736 49.8107 58.758 49.8023 58.7436L49.8079 58.7408C47.3806 56.1476 43.6486 50.8108 41.1426 45.9804C42.4114 51.174 43.5227 56.876 43.7733 59.8632C43.7849 59.9148 43.8276 59.9576 43.8824 59.9604Z"
              fill="#E8E8E8"/>
        <path d="M51.8876 58.2104C39.2269 37.798 41.2302 8.9516 42.6552 0.1288H42.6496C42.6496 0.126 42.6524 0.126 42.6524 0.1232C42.6524 0.0544 42.5981 0 42.5293 0C42.5149 0 42.5034 0.0028 42.4922 0.0084L42.4906 0.0056C40.8765 0.6536 29.682 5.1544 28.4879 5.636C28.4364 5.6532 28.4004 5.6976 28.4004 5.752C28.4004 5.762 28.4048 5.7708 28.406 5.7792H28.4048C30.6646 16.1332 36.4643 40.6508 51.8876 58.2104Z"
              fill="#E8E8E8"/>
        <path d="M34.5958 58.9476H34.5974C34.5958 58.9564 34.5918 58.9648 34.5918 58.9736C34.5918 59.0252 34.6262 59.0684 34.6705 59.0896C36.8516 59.6716 39.1403 59.994 41.4972 60.0284C41.5604 60.0256 41.6119 59.974 41.6147 59.9136H41.6163C41.3154 54.9512 40.1713 44.7292 35.9625 35.6828C37.3296 44.86 35.8302 54.4136 34.5958 58.9476Z"
              fill="#E8E8E8"/>
        <path d="M31.3183 57.9611C31.3643 57.9611 31.4027 57.9339 31.423 57.8967L31.4286 57.9011C31.4674 57.7219 31.5461 57.3767 31.5849 57.2103L31.5793 57.2059C31.5821 57.2003 31.5849 57.1931 31.5849 57.1843C31.5849 57.1299 31.5461 57.0827 31.4962 57.0695L31.4978 57.0651C22.3713 53.1519 16.3134 42.5931 16.3134 32.0459C16.3134 23.8051 19.8393 14.8175 25.9067 10.1303V10.1275C25.9299 10.1059 25.9427 10.0759 25.9427 10.0415C25.9427 10.0331 25.9411 10.0271 25.9383 10.0187L25.9455 10.0159C25.9083 9.8767 25.8324 9.5503 25.7892 9.3451C25.7736 9.2935 25.7277 9.2563 25.6733 9.2563C25.6461 9.2563 25.623 9.2647 25.6018 9.2791C18.5129 14.3531 13.8857 22.6571 13.8857 32.0459C13.8857 43.7543 21.0805 53.7795 31.2824 57.9551C31.2928 57.9583 31.3056 57.9611 31.3183 57.9611Z"
              fill="#F08901"/>
        <path d="M57.1905 8.65235L57.1877 8.65515C57.1749 8.64795 57.1605 8.64515 57.1406 8.64515C57.0978 8.64515 57.059 8.67235 57.0375 8.70675L56.7537 9.32155C56.7437 9.33875 56.7381 9.35715 56.7381 9.37595C56.7381 9.41475 56.7569 9.44475 56.7869 9.46915L56.7857 9.47475C63.552 14.0848 67.3872 23.2544 67.3872 32.0456C67.3872 41.8344 62.6353 51.6492 54.543 55.9512L54.5458 55.954C54.5214 55.9784 54.5059 56.0084 54.5059 56.0444C54.5059 56.0616 54.5103 56.0772 54.5159 56.0932H54.5147L54.8583 56.6908H54.8611C54.8855 56.7208 54.9183 56.7412 54.957 56.7412C54.9786 56.7412 54.997 56.7356 55.013 56.7256C63.8174 52.0152 69.8121 42.7336 69.8121 32.046C69.8113 22.2604 64.7905 13.654 57.1905 8.65235Z"
              fill="#EE8A00"/>
        <path d="M62.7344 57.4381H63.4157V59.3433H63.7266V57.4381H64.4084V57.1717H62.7344V57.4381Z" fill="#E8E8E8"/>
        <path d="M66.5776 57.1713L65.8559 59.0609L65.1342 57.1713H64.7861V59.3433H65.0966V57.7849L65.6913 59.3433H66.0206L66.6148 57.7849V59.3433H66.9257V57.1713H66.5776Z"
              fill="#E8E8E8"/>
    </g>
    <defs>
        <clipPath id="clip0">
            <rect width="83.6975" height="120" fill="white"/>
        </clipPath>
    </defs>
</svg>
