<svg width="102" height="120" viewBox="0 0 102 120" fill="none" xmlns="http://www.w3.org/2000/svg">
    <g clip-path="url(#clip0)">
        <path d="M97.2067 57.5069C95.6798 53.5411 94.2386 49.7952 94.2371 43.4759C94.2371 38.8123 95.182 34.2132 97.0459 29.8049L100.265 22.1873L100.497 21.6375L99.944 21.4673L92.3696 19.1386C89.236 18.1765 86.9458 15.6914 85.563 11.752L82.2244 2.22604L81.9778 1.52243L81.4241 1.99978L73.9786 8.42163C71.3855 10.6593 68.7279 11.7943 66.08 11.7943C61.8701 11.7943 58.1357 9.49106 56.0444 7.33529L51.2494 2.39467L50.8926 2.02674L50.5359 2.39467L45.7419 7.33529C43.6511 9.49106 39.9167 11.7943 35.7048 11.7943C33.0563 11.7943 30.3988 10.6599 27.8051 8.42216L20.3591 2.00031L19.8055 1.52295L19.5588 2.22657L16.2197 11.7531C14.8384 15.6914 12.5493 18.1765 9.41315 19.1392L1.83927 21.4678L1.28613 21.638L1.51855 22.1878L4.73688 29.8054C6.60079 34.2132 7.54619 38.8128 7.54619 43.4764C7.54619 49.7978 6.10347 53.5459 4.57601 57.5143C3.02419 61.5446 1.42061 65.7103 1.42061 72.7221C1.42061 76.8037 2.06965 80.78 3.34998 84.5408C7.27876 96.0935 17.2362 105.283 29.3371 108.526C32.8594 109.454 35.4937 109.976 37.8179 110.438C40.2577 110.923 42.3703 111.343 45.003 112.104C45.9545 113.154 50.474 118.242 50.5217 118.296L50.8937 118.716L51.2661 118.296C51.3133 118.242 55.8318 113.156 56.7838 112.104C59.4165 111.343 61.5306 110.923 63.9705 110.438C66.2946 109.976 68.9289 109.453 72.4497 108.528C79.9728 106.51 86.8799 102.103 91.8966 96.1168C97.4361 89.5099 100.365 81.4197 100.365 72.721C100.365 66.2659 99.0361 62.2747 97.431 58.0879L97.2067 57.5069Z"
              fill="white"/>
        <path d="M97.9501 30.2262L101.863 20.973L92.6389 18.1379C89.8286 17.2731 87.7617 15.0031 86.4926 11.3931L82.4192 -0.223652L73.3264 7.61917C70.9155 9.69829 68.4741 10.7513 66.0662 10.7513C62.8473 10.7513 59.1835 9.1189 56.7314 6.59362L50.8783 0.560314L45.0222 6.59414C42.5727 9.11943 38.9078 10.7519 35.6895 10.7519C33.2821 10.7519 30.8401 9.69882 28.4292 7.6197L19.338 -0.223124L15.2626 11.3936C13.9975 15.0042 11.9296 17.2741 9.11567 18.1385L-0.106445 20.9735L3.80609 30.2267C5.61367 34.4981 6.52863 38.9561 6.52863 43.4759C6.52863 55.9839 0.405586 58.829 0.405586 72.7215C0.405586 92.7362 15.2631 105.834 29.0691 109.535C36.0447 111.304 38.1517 111.423 44.4503 113.04C44.9664 113.618 50.8783 120.247 50.8783 120.247C50.8783 120.247 56.7908 113.617 57.3053 113.04C63.604 111.423 65.712 111.304 72.6875 109.535C86.4926 105.833 101.352 92.7367 101.352 72.7215C101.352 58.8296 95.228 55.9839 95.228 43.4759C95.227 38.954 96.1435 34.4976 97.9501 30.2262ZM96.9468 58.2851C98.4205 62.1288 99.8444 66.139 99.8444 72.7221C99.8444 91.0049 86.7767 104.137 72.3125 108.015C65.1609 109.897 61.8299 110.08 56.4995 111.636C55.8048 112.396 50.8814 117.939 50.8814 117.939C50.8814 117.939 45.9559 112.394 45.2617 111.636C39.9313 110.081 36.6014 109.897 29.4507 108.015C18.2779 105.021 7.94445 96.5053 3.81522 84.3652C2.5963 80.7827 1.91579 76.8888 1.91579 72.7231C1.91579 59.0696 8.04036 56.4829 8.04036 43.4775C8.04036 38.1473 6.81027 33.4292 5.18842 29.5934L1.96907 21.9758L9.54346 19.6472C12.8404 18.6343 15.2428 16.0398 16.6824 11.9355L20.0215 2.40895L27.4676 8.83027C29.9171 10.9437 32.7162 12.324 35.6915 12.324C39.6756 12.324 43.6201 10.2539 46.0848 7.71221L50.8788 2.77159L55.6738 7.71221C58.1396 10.2539 62.0841 12.324 66.0667 12.324C69.0384 12.324 71.8401 10.9437 74.2891 8.83027L81.7356 2.40842L85.0742 11.9349C86.5154 16.0398 88.9142 18.6343 92.2132 19.6467L99.7881 21.9753L96.5687 29.5929C94.9474 33.4287 93.7168 38.1467 93.7168 43.477C93.7193 50.2139 95.363 54.1522 96.9468 58.2851Z"
              fill="black"/>
        <path d="M95.0423 24.2986C95.0423 24.2986 83.3524 23.2371 80.1848 8.43221C80.1848 8.43221 73.1747 15.9536 66.0687 15.9536C56.909 15.9536 50.8803 7.84173 50.8803 7.84173C50.8803 7.84173 44.8517 15.9536 35.6915 15.9536C28.585 15.9536 21.5754 8.43221 21.5754 8.43221C18.4073 23.2387 6.71536 24.2986 6.71536 24.2986C6.71536 24.2986 11.4718 33.065 11.4718 43.4453C11.4718 44.8086 11.4058 46.0657 11.2911 47.2482C10.2838 57.6174 5.3584 61.7767 5.3584 72.7205C5.3584 86.1462 14.1872 100.241 30.3063 104.489C37.9654 106.505 43.2517 107.019 47.1439 108.483C47.6417 108.968 50.8809 112.625 50.8809 112.625C50.8809 112.625 54.119 108.968 54.6163 108.483C58.5085 107.019 63.7958 106.506 71.4524 104.489C87.5729 100.241 96.4008 86.1478 96.4008 72.7205C96.4008 60.5312 90.2884 56.7621 90.2884 43.4458C90.2869 33.065 95.0423 24.2986 95.0423 24.2986ZM92.9653 72.721C92.9653 88.2401 81.357 98.1198 70.5943 100.966C62.0709 103.219 56.4995 103.478 52.7569 105.357C52.7569 105.357 51.3944 106.654 50.8803 107.251C50.3638 106.654 49.0037 105.357 49.0037 105.357C45.2607 103.478 39.6898 103.219 31.1659 100.966C20.4037 98.1182 8.79392 88.2407 8.79392 72.721C8.79392 61.6218 14.9104 57.546 14.9104 43.4463C14.9104 33.9457 11.4627 26.6246 11.4627 26.6246C11.4627 26.6246 19.4192 24.9526 23.1257 14.4608C23.1257 14.4608 28.4048 19.5938 35.6925 19.5938C44.8197 19.5938 50.8814 12.9177 50.8814 12.9177C50.8814 12.9177 56.942 19.5938 66.0697 19.5938C73.3564 19.5938 78.635 14.4608 78.635 14.4608C82.3425 24.9526 90.2995 26.6246 90.2995 26.6246C90.2995 26.6246 86.8503 33.9462 86.8503 43.4463C86.8483 57.546 92.9653 61.6218 92.9653 72.721Z"
              fill="black"/>
        <path d="M66.0683 23.6612C59.2521 23.6612 53.9242 20.5639 50.8794 18.2321C47.8326 20.5639 42.5063 23.6612 35.6911 23.6612C31.1914 23.6612 27.3611 22.0753 24.6614 20.5005C22.1484 24.8707 18.9956 27.4108 16.4831 28.846C17.563 32.214 18.8164 37.4184 18.8164 43.4453C18.8164 55.0526 15.0115 60.489 13.4033 67.0594L69.2075 23.4048C68.2062 23.5681 67.1568 23.6612 66.0683 23.6612Z"
              fill="black"/>
        <path d="M82.9407 43.4468C82.9407 37.4199 84.1956 32.2149 85.2745 28.8475C83.1249 27.6174 80.4998 25.5774 78.2162 22.2734L12.7119 73.5171C13.025 83.5945 19.2775 90.9319 26.418 94.7556L83.4126 50.1689C83.1188 48.1659 82.9407 45.951 82.9407 43.4468ZM41.8362 78.1686L36.7677 82.1318L31.3013 73.4125V86.4111L26.5063 90.1612V71.7779C26.5063 69.1807 24.1263 69.1115 24.1263 69.1115L30.9227 63.7945L37.0422 73.5573V59.0072L41.8372 55.256V78.1686H41.8362ZM61.1741 63.0417L56.4861 66.7099V58.3321L51.0756 62.5622V70.9427L46.1491 74.7959V56.4111C46.1491 53.8133 43.7691 53.7441 43.7691 53.7441L51.0756 48.029V56.4967L56.4861 52.266V43.8L61.1741 40.1275V63.0417ZM78.8668 49.2005L65.2663 59.8403V41.457C65.2663 38.8578 62.8863 38.789 62.8863 38.789L70.1917 33.074V50.1383L78.8673 43.3538C78.8668 43.3538 78.572 45.5339 78.8668 49.2005Z"
              fill="black"/>
        <path d="M31.3613 96.8062C31.6161 96.8813 31.8718 96.9553 32.1261 97.0198C38.8779 98.8082 47.1358 99.729 49.629 101.214C50.1917 101.643 50.8804 102.403 50.8804 102.403C50.8804 102.403 51.5675 101.643 52.1297 101.214C54.6249 99.729 62.8824 98.8082 69.6347 97.0198C78.9882 94.541 89.0609 85.8862 89.0609 72.72C89.0609 66.1576 86.2977 61.8381 84.4846 55.2455L31.3613 96.8062Z"
              fill="black"/>
    </g>
    <defs>
        <clipPath id="clip0">
            <rect width="102" height="120" fill="white"/>
        </clipPath>
    </defs>
</svg>
