<svg width="146" height="120" viewBox="0 0 146 120" fill="none" xmlns="http://www.w3.org/2000/svg">
    <g clip-path="url(#clip0)">
        <path d="M6.47874 3.8147e-06C3.15203 3.8147e-06 0.350586 2.61628 0.350586 6.10465V87.7325C0.350586 91.0465 2.97694 93.8372 6.47874 93.8372H131.843C135.17 93.8372 137.972 91.2209 137.972 87.7325V44.3023C130.968 44.3023 125.365 38.7209 125.365 31.7442C125.365 24.7674 130.968 19.186 137.972 19.186V6.10465C137.972 2.7907 135.345 3.8147e-06 131.843 3.8147e-06H6.47874Z"
              fill="url(#paint0_linear)"/>
        <path d="M4.02734 4.53491C5.42807 5.23259 6.65371 6.62793 7.70425 8.89538H131.318C131.668 6.97677 132.719 5.58143 134.47 4.3605C133.769 3.4884 132.894 2.96514 132.018 2.96514H6.30355C5.4281 3.13956 4.55261 3.66282 4.02734 4.53491Z"
              fill="url(#paint1_linear)"/>
        <path d="M0.700492 4.36047C0.700492 4.53489 0.700492 4.53489 0.700492 4.36047V4.36047ZM127.291 38.3721C86.1445 60.5233 43.4225 62.2674 0.700492 62.4419H0.525391V87.5581C0.525391 90.8721 3.15174 93.6628 6.65355 93.6628H132.018C135.345 93.6628 138.146 91.0465 138.146 87.5581V44.3023C133.419 44.3023 129.567 41.8605 127.291 38.3721Z"
              fill="url(#paint2_linear)"/>
        <path d="M11.2059 84.5931C11.2059 84.5931 10.3305 84.4187 10.5056 84.2442C10.6807 83.3722 11.0308 82.8489 11.0308 82.5001C11.0308 82.1512 11.7312 82.5001 11.7312 82.5001L12.2565 81.4535C12.2565 81.4535 11.5561 81.2791 11.7312 80.9303C11.9063 80.2326 12.2565 79.8838 12.4316 79.7094C12.6067 79.5349 12.9568 79.8838 12.9568 79.8838C12.9568 79.8838 13.307 79.535 13.307 79.3605C13.8323 78.6629 14.5326 78.314 14.7077 77.7908L15.0579 76.7443C15.0579 76.7443 14.3576 76.3954 14.5327 76.221C14.8829 75.6977 15.0579 75.5233 15.233 75.0001C15.4081 74.8256 15.7582 75.3489 15.7582 75.3489L16.2836 74.6512C16.2836 74.6512 15.7583 74.3024 15.9334 74.128C16.1085 73.6047 16.6337 73.2559 16.8088 72.7326C16.9839 72.5582 17.3341 73.0815 17.3341 73.0815C17.3341 73.0815 18.3847 71.8605 18.9099 71.6861C19.2601 71.6861 19.9604 72.2094 19.9604 72.2094L21.1861 73.4303L22.4117 74.6512H23.112C24.5128 74.6512 28.0146 73.6047 32.0417 72.0349C34.3179 71.1628 36.7691 70.2908 37.4695 70.1163C37.4695 70.1163 38.3449 69.7675 38.8702 69.7675C39.0453 69.7675 39.5706 69.9419 39.5706 69.9419L40.2709 70.1163L39.5706 69.0698C39.2204 68.3722 38.3449 66.9768 37.8197 65.7559C37.1193 64.5349 36.7691 63.314 36.2438 62.2675L35.5435 62.4419L34.3179 59.4768C30.8161 52.3256 30.4658 50.407 30.6409 46.0466C30.816 45.0001 31.1662 44.3024 31.6915 43.6047L30.9911 43.4303C30.9911 43.4303 30.2908 43.6047 30.2908 43.2559C30.2908 41.6861 30.6409 38.721 30.6409 38.721C31.1662 33.4884 31.8666 28.2559 33.0922 24.5931L33.6175 23.0233L35.3684 22.1512L37.1193 21.2791L36.2438 21.4536C35.7185 21.4536 33.6175 21.8024 31.6915 21.8024L28.0145 22.1512L24.5127 25.9884L20.6608 29.4768L20.3106 30.6977C20.3106 30.6977 20.1355 31.5698 19.9604 31.9187C19.7853 32.2675 19.085 32.9652 19.085 32.9652C18.5597 33.4884 17.6843 34.1861 17.159 34.5349L16.1084 35.0582H15.4081C14.3576 35.0582 13.8323 34.8838 13.8323 34.3605C13.8323 34.1861 14.3575 33.4884 14.8828 32.9652C15.408 32.2675 15.9333 31.7443 15.7582 31.7443C15.7582 31.7443 15.233 31.9187 14.7077 32.2675C14.7077 32.2675 14.0074 32.9652 13.6572 32.9652C13.3071 32.9652 13.1319 32.4419 13.1319 31.9187C13.1319 31.5698 13.8323 31.3954 14.1825 31.221C15.0579 30.5233 15.4081 30.0001 16.1084 28.9536C16.4586 28.4303 16.9839 27.7326 17.5091 27.5582L18.3846 27.035L20.6608 23.3722C21.8865 21.4535 23.2871 19.0117 23.9875 18.1396C23.9875 18.1396 24.5128 16.9187 25.0381 16.3954C25.3883 16.221 26.0886 16.0466 26.0886 16.0466L27.4893 15.6977C27.4893 15.1745 27.1392 14.6512 27.6645 14.6512C31.5164 13.7791 32.7421 13.2559 36.0688 12.5582C38.8702 12.035 41.4965 12.2094 41.4965 12.2094L42.7222 12.3838C44.4731 12.7326 47.0995 13.4303 48.3251 13.7791L49.3756 14.128L49.9008 13.0815C50.6012 11.6861 52.0019 10.2908 53.4026 9.5931C55.1535 8.89542 56.7294 8.54658 58.4803 9.06983L59.5308 9.41867C61.4568 10.6396 62.5074 12.3838 63.3828 14.3024C63.5579 16.3954 63.9081 17.9652 62.6825 19.0117C62.3323 19.1861 61.9821 19.1861 61.2817 19.5349C60.4062 19.8838 59.881 20.9303 59.0055 22.1512C59.0055 22.1512 58.6554 22.6745 58.3052 22.8489C57.9551 23.0233 57.78 23.0233 57.4298 22.8489C56.7294 22.8489 56.3792 23.0233 56.3792 23.0233L55.5037 23.5466C54.9785 23.8954 54.2782 24.0698 53.928 24.0698H53.4026C53.0525 23.8954 52.7023 23.1977 52.7023 23.1977L52.1771 22.3256L52.0019 22.8489C50.4261 27.2094 50.0759 32.2675 48.5001 36.628L50.6012 36.8024C51.6518 36.9768 54.4532 37.3256 56.7294 37.6745C56.7294 37.6745 59.706 38.0233 60.9316 38.3722C61.2818 38.3722 61.4569 39.2443 61.4569 39.2443L64.0832 39.7675C65.4839 40.1163 67.76 40.6396 69.1608 41.1629L71.6121 42.035C71.6121 42.035 73.363 41.6861 74.2384 41.6861C75.289 41.6861 77.215 42.3838 77.215 42.3838L77.39 42.035L79.8413 43.0815C81.067 43.6047 83.6933 44.8256 86.1445 45.8722C91.0471 47.9652 94.5489 49.1861 96.4749 49.7094L97.8756 50.0582L101.728 49.7094C103.829 49.535 106.105 49.1861 106.805 49.0117C108.556 48.6629 109.081 48.6629 109.782 49.3605C110.132 49.7094 110.657 50.2326 110.482 50.407C110.307 50.5815 109.957 50.9303 109.607 50.9303C109.607 50.9303 109.957 51.2791 109.782 51.4536C109.432 51.8024 109.081 51.8024 108.731 51.9768C108.556 51.9768 108.381 51.628 108.381 51.628L107.681 52.1512C107.856 52.3256 108.031 52.5001 107.856 52.6745C107.506 53.0233 107.155 53.1977 106.805 53.3722C106.63 53.5466 106.63 53.1977 106.455 53.0233L102.078 56.3373C102.078 56.3373 102.603 56.6861 102.428 57.0349C101.903 57.5582 101.903 57.5582 101.552 57.7326C101.377 57.7326 101.202 57.3838 101.027 57.2094L100.327 57.7326C100.327 57.7326 100.852 58.2559 100.677 58.4303C100.502 58.6047 100.152 58.7791 99.6265 59.128C99.4514 59.3024 98.9261 58.6047 98.9261 58.6047C98.9261 58.6047 97.5254 59.4768 97.0002 59.3024C96.65 59.128 96.65 58.2559 96.1247 57.3838C96.1247 57.3838 95.7745 56.3373 95.2493 55.9884C94.8991 55.6396 94.1988 55.6396 94.1988 55.6396C91.9226 55.2908 88.0705 54.4187 85.7943 54.2443C78.0904 53.721 76.5146 53.3722 73.7132 51.9768L71.7871 50.9303L66.0092 50.7559L60.0562 50.5815L59.706 51.2791H47.7998V51.8024C47.7998 52.1512 48.15 53.5466 48.5001 55.4652C48.5001 55.4652 49.2005 58.6047 48.8503 58.9535C48.5002 59.3024 47.9749 59.6512 47.9749 59.6512L48.6753 63.6629C49.5507 69.4187 49.7258 69.5931 49.7258 71.6861V73.6047L49.3756 74.3024C49.2005 74.6512 48.8504 75.5233 48.3251 75.8722L47.6247 76.7443L46.0489 77.4419C45.1735 77.7908 44.6482 78.1396 44.298 78.1396C44.1229 78.1396 43.4225 78.314 43.2474 78.4884C43.0723 78.4884 43.2475 78.8373 43.0724 78.8373C42.7222 78.8373 39.9208 79.0117 39.9208 79.0117C38.1699 79.1861 33.4424 79.3605 29.0652 79.7094L21.3611 80.0582L20.3106 80.7559C18.0345 82.1512 16.1085 83.8954 15.0579 85.2908L13.8323 86.5117C13.4821 86.6861 12.9568 86.8605 12.4316 86.8605C11.5561 86.8605 11.0308 86.5117 11.0308 85.9884C10.8557 85.4652 11.2059 84.5931 11.2059 84.5931Z"
              fill="white"/>
        <path d="M0.525391 87.2094V87.5582C0.525391 90.8721 3.15174 93.6628 6.65355 93.6628H132.018C135.345 93.6628 138.146 91.0466 138.146 87.5582V87.2094H0.525391Z"
              fill="url(#paint3_linear)"/>
        <path d="M137.972 24.593C134.645 24.593 132.019 26.5116 132.019 28.9535C132.019 31.3953 134.645 33.3139 137.972 33.3139C141.298 33.3139 143.925 31.3953 143.925 28.9535C143.75 26.5116 141.123 24.593 137.972 24.593ZM144.275 27.907C144.625 28.6046 144.975 29.4767 144.975 30.5232C144.975 33.8372 141.824 36.4535 137.972 36.4535C134.12 36.4535 131.143 33.8372 131.143 30.5232C131.143 30 131.318 29.4767 131.318 28.9535C130.968 29.8256 130.793 30.5232 130.793 31.5697C130.793 35.2325 133.945 38.3721 137.972 38.3721C141.999 38.3721 145.15 35.4069 145.15 31.5697C145.325 30 144.8 28.9535 144.275 27.907Z"
              fill="url(#paint4_radial)"/>
        <path d="M137.971 24.2442C133.769 24.2442 130.442 27.5582 130.442 31.7442C130.442 35.9302 133.769 39.2442 137.971 39.2442C142.174 39.2442 145.5 35.9302 145.5 31.7442C145.5 27.5582 141.998 24.2442 137.971 24.2442ZM135.52 24.9419C135.52 24.9419 136.921 24.593 137.971 24.593C139.022 24.593 141.648 25.1163 142.874 26.6861C145.15 29.8256 142.524 31.7442 142.173 32.093C142.173 31.7442 141.648 29.8256 141.123 28.9535C140.773 28.4302 140.423 27.907 140.072 27.5581C139.547 27.0349 139.197 26.6861 138.497 26.1628C136.571 25.6396 138.146 26.1628 138.847 26.6861C138.847 26.6861 141.648 29.1279 141.823 32.093C140.773 32.7907 139.372 33.314 137.971 33.314C134.645 33.314 132.193 31.3954 132.193 28.9535C132.719 25.9884 134.469 25.6396 134.645 25.2907C134.82 25.2907 135.17 25.1163 135.52 24.9419ZM137.971 38.0233C131.318 37.6744 130.092 32.093 131.318 28.7791C129.917 32.093 132.894 36.1047 137.971 36.2791C140.948 36.2791 141.823 35.2326 141.823 35.2326C141.823 35.2326 141.823 35.9302 141.648 36.2791C141.648 36.6279 141.473 37.1512 141.473 37.1512C140.423 37.8488 140.072 37.8488 137.971 38.0233Z"
              fill="url(#paint5_radial)"/>
        <path d="M142.173 32.6163C141.998 31.9186 141.998 31.5698 141.823 31.0465L141.648 30.1744C140.773 27.7325 139.547 26.8605 137.971 25.8139C137.446 25.4651 136.395 24.9418 135.87 24.7674C136.57 24.593 136.746 24.593 137.096 24.4186C138.672 24.4186 140.072 24.4186 141.823 25.2907C143.749 26.3372 144.8 27.7325 144.8 29.3023C144.8 29.8256 144.8 30.1744 144.625 30.5233C144.45 31.3953 144.099 32.093 143.399 32.9651C143.224 33.3139 142.874 33.3139 142.699 33.3139C142.173 33.4884 142.173 32.9651 142.173 32.6163Z"
              fill="url(#paint6_linear)"/>
        <path d="M140.247 28.2558C140.247 30 138.846 31.5698 136.92 31.5698C134.994 31.5698 133.594 30.1744 133.594 28.2558C133.594 26.5116 134.994 24.9419 136.92 24.9419C138.846 24.9419 140.247 26.5116 140.247 28.2558Z"
              fill="url(#paint7_radial)"/>
        <path d="M134.469 29.3023C135.52 28.2558 137.096 27.5581 139.722 27.907C138.847 26.8605 137.971 26.1628 136.746 25.6395C134.469 26.1628 133.419 27.2093 132.894 28.6046C133.244 28.6046 133.594 28.7791 134.469 29.3023Z"
              fill="white" stroke="white"/>
        <path d="M77.565 103.256C75.1138 103.256 73.3628 104.128 72.6624 106.046C72.3122 106.744 72.3123 106.919 72.3123 108.14C72.3123 109.186 72.4873 109.535 72.6624 109.884C73.3628 111.105 74.2383 111.628 77.2148 112.674C80.1914 113.721 80.7166 114.07 80.7166 115.291C80.7166 115.988 80.3664 116.512 79.491 117.035C78.9657 117.384 78.7906 117.384 77.7401 117.384C76.3393 117.384 75.4639 117.035 74.4133 116.163C74.0631 115.814 73.5379 115.64 73.5379 115.64C73.3628 115.64 71.787 117.209 71.787 117.384C71.787 117.558 73.0126 118.605 73.5379 118.953C74.2382 119.302 74.9387 119.651 75.8141 119.826C76.8647 120 79.1408 120 80.0162 119.651C81.592 119.128 82.6426 118.256 83.1678 117.035C83.3429 116.512 83.518 116.163 83.518 115.116C83.518 113.895 83.518 113.721 83.1678 113.198C82.8176 112.5 82.1173 111.802 81.2419 111.279C80.8917 111.105 79.6661 110.581 78.4405 110.233C77.2148 109.884 75.9892 109.36 75.8141 109.186C74.9387 108.663 74.7636 107.616 75.4639 106.919C76.3394 105.872 78.9657 105.872 80.5415 107.093C80.8916 107.442 81.2419 107.616 81.2419 107.616C81.417 107.616 82.9928 106.046 82.9928 105.872C82.9928 105.523 81.9422 104.651 80.8917 104.302C79.666 103.43 78.9657 103.256 77.565 103.256ZM114.159 103.256C112.583 103.256 111.708 103.43 110.482 104.128C108.906 105 107.681 106.395 106.98 108.663C106.805 109.535 106.63 109.884 106.63 111.628C106.63 113.895 106.805 114.767 107.505 116.163C108.556 118.081 110.307 119.477 112.408 119.826C115.034 120.349 117.836 119.651 119.412 118.081C120.812 116.686 121.162 115.291 121.338 112.5V110.581H114.684V113.721H115.735C116.785 113.721 116.785 113.721 116.785 114.07C116.785 114.767 116.26 115.639 115.56 115.814C115.034 115.988 113.809 115.988 113.283 115.814C112.758 115.639 112.058 114.767 111.708 114.07C111.357 113.023 111.357 111.628 111.532 110.581C111.883 108.488 112.583 107.442 114.159 107.442C114.684 107.442 115.56 107.791 115.735 108.14C115.91 108.314 116.085 108.488 116.26 108.488C116.61 108.488 120.112 107.093 120.287 106.919C120.462 106.744 119.762 105.523 119.061 105C118.011 103.779 116.435 103.256 114.159 103.256ZM45.1733 103.605V119.651H48.3249C50.7762 119.651 51.6517 119.477 52.1769 119.302C55.6787 118.256 57.6047 115.639 57.6047 111.453C57.6047 109.884 57.4296 108.663 56.7292 107.442C55.8538 105.698 54.6282 104.477 52.7022 103.953C51.8267 103.605 51.6516 103.605 48.5 103.605H45.1733ZM32.2166 103.605H29.4152V119.477C29.4152 119.651 29.7653 119.651 30.6407 119.651H31.8664V114.07C31.8664 111.453 31.6913 108.663 31.6913 108.663C31.6913 108.663 31.8664 108.663 33.092 110.407C33.7924 111.453 35.3682 114.07 36.5939 115.988L39.0452 119.651H41.4964V103.605H38.695V109.186C38.695 112.849 38.6949 114.767 38.5198 114.593C38.5198 114.419 36.944 111.977 35.018 109.012L32.2166 103.605ZM132.018 103.605H127.291L121.688 119.477H126.59L127.291 116.86L131.843 117.035L132.718 119.651L137.621 119.477L132.018 103.605ZM0 103.605V119.651C0.17509 119.826 7.00361 119.826 7.87906 119.651C8.75451 119.477 9.98015 118.953 10.5054 118.43C11.3809 117.558 12.0812 115.814 11.9061 114.244C11.731 112.849 11.2058 111.802 10.1552 111.279C9.98012 111.105 9.62996 110.93 9.62996 110.93L10.1552 110.407C11.0307 109.709 11.2058 109.012 11.2058 107.442C11.2058 106.395 11.0307 106.221 10.8556 105.523C10.3303 104.651 9.62995 103.953 8.57941 103.605C7.87905 103.43 7.52885 103.43 3.85195 103.43H0V103.605ZM23.8123 103.605V108.314C23.8123 110.93 23.8122 113.372 23.6371 113.895C23.287 116.163 22.2364 117.209 20.1353 117.035C18.7346 117.035 17.6841 116.337 17.1589 114.942C16.9838 114.419 16.9838 114.07 16.8087 108.837V103.43H14.0072V108.837C13.8321 113.895 14.0072 119.651 20.1353 119.826C23.287 119.826 25.213 118.43 26.0884 115.465C26.2635 114.942 26.2635 113.895 26.2635 109.186V103.605H23.8123ZM99.2761 103.605V119.651H104.004V103.605H99.2761ZM59.5306 103.605V119.477C59.5306 119.651 60.7563 119.651 64.9585 119.651H70.3863V116.86H62.3321V112.326H66.8845V109.535H62.3321V106.046H70.036V103.605H59.5306ZM86.3195 103.605V119.477C86.3195 119.651 87.5451 119.651 91.7473 119.651H97V115.465H91.0469V103.605H86.3195ZM5.25271 106.046C6.12816 106.046 6.82852 106.046 7.00361 106.221C8.05415 106.395 8.7545 107.267 8.57941 108.314C8.57941 109.012 7.87903 109.535 7.35376 109.709C7.17867 109.709 5.95304 109.884 4.72741 109.884H2.45125V106.046H5.25271ZM47.7997 106.046H48.5C49.5505 106.046 51.3015 106.221 51.8267 106.395C53.7527 107.093 54.6281 108.837 54.6281 111.453C54.6281 112.674 54.4531 113.546 54.1029 114.419C53.5776 115.639 52.527 116.337 51.1263 116.686C50.6011 116.86 49.7256 116.86 49.0252 116.86H47.7997V106.046ZM129.567 109.012L130.792 113.198H128.166L129.567 109.012ZM2.45125 112.151H4.55236C7.3538 112.151 7.87904 112.326 8.40431 112.849C9.62994 114.07 9.10467 116.337 7.52886 116.86C7.17868 116.86 5.95304 117.035 4.72741 117.035H2.45125V112.151Z"
              fill="white"/>
    </g>
    <defs>
        <linearGradient id="paint0_linear" x1="78.5022" y1="51.2529" x2="112.885" y2="67.8947"
                        gradientUnits="userSpaceOnUse">
            <stop stop-color="#CD090D"/>
            <stop offset="1" stop-color="#F39272"/>
        </linearGradient>
        <linearGradient id="paint1_linear" x1="69.2695" y1="3.13084" x2="69.2695" y2="8.31805"
                        gradientUnits="userSpaceOnUse">
            <stop stop-color="white"/>
            <stop offset="0.3" stop-color="white" stop-opacity="0.498"/>
            <stop offset="1" stop-color="white" stop-opacity="0"/>
        </linearGradient>
        <linearGradient id="paint2_linear" x1="0.831799" y1="49.0221" x2="86.9394" y2="49.0221"
                        gradientUnits="userSpaceOnUse">
            <stop stop-color="#8E0902"/>
            <stop offset="1" stop-color="#E2080E"/>
        </linearGradient>
        <linearGradient id="paint3_linear" x1="69.2133" y1="95.2762" x2="69.2133" y2="87.0489"
                        gradientUnits="userSpaceOnUse">
            <stop stop-color="#580000" stop-opacity="0.863"/>
            <stop offset="0.547" stop-color="#740500" stop-opacity="0.514"/>
            <stop offset="0.815" stop-color="#800700" stop-opacity="0.255"/>
            <stop offset="1" stop-color="#8C0A00" stop-opacity="0"/>
        </linearGradient>
        <radialGradient id="paint4_radial" cx="0" cy="0" r="1" gradientUnits="userSpaceOnUse"
                        gradientTransform="translate(137.016 28.2031) rotate(136.147) scale(13.6232 13.0447)">
            <stop stop-color="white"/>
            <stop offset="0.5" stop-color="#464646"/>
            <stop offset="1"/>
        </radialGradient>
        <radialGradient id="paint5_radial" cx="0" cy="0" r="1" gradientUnits="userSpaceOnUse"
                        gradientTransform="translate(138.304 28.739) scale(7.46588 7.43721)">
            <stop stop-color="#EFEFEF"/>
            <stop offset="0.55" stop-color="#AFAFAF"/>
            <stop offset="1" stop-color="#3F3F3F"/>
        </radialGradient>
        <linearGradient id="paint6_linear" x1="140.114" y1="25.8942" x2="139.756" y2="29.7805"
                        gradientUnits="userSpaceOnUse">
            <stop stop-color="white" stop-opacity="0.766"/>
            <stop offset="1" stop-color="#AAAAAA" stop-opacity="0.475"/>
        </linearGradient>
        <radialGradient id="paint7_radial" cx="0" cy="0" r="1" gradientUnits="userSpaceOnUse"
                        gradientTransform="translate(136.922 28.3123) scale(3.25128 3.23882)">
            <stop stop-color="white"/>
            <stop offset="1" stop-color="white" stop-opacity="0"/>
        </radialGradient>
        <clipPath id="clip0">
            <rect width="145.5" height="120" fill="white"/>
        </clipPath>
    </defs>
</svg>
