<svg width="120" height="120" viewBox="0 0 120 120" fill="none" xmlns="http://www.w3.org/2000/svg">
    <g clip-path="url(#clip0)">
        <path d="M60.0968 119.328C27.3608 119.328 0.84082 92.8081 0.84082 60.0961C0.84082 27.3601 27.3608 0.840054 60.0968 0.840054C92.8088 0.840054 119.329 27.3601 119.329 60.0721C119.329 92.8081 92.8088 119.328 60.0968 119.328Z"
              fill="#4C2178"/>
        <path d="M60.0947 120.095C27.0227 120.095 0.0947266 93.1908 0.0947266 60.0948C0.0947266 26.9988 27.0227 0.0948219 60.0947 0.0948219C93.1667 0.0948219 120.095 27.0228 120.095 60.0948C120.095 93.1668 93.1667 120.095 60.0947 120.095ZM60.0947 1.60682C27.8387 1.60682 1.60673 27.8388 1.60673 60.0948C1.60673 92.3268 27.8387 118.559 60.0947 118.559C92.3267 118.559 118.559 92.3268 118.559 60.0948C118.559 27.8388 92.3267 1.60682 60.0947 1.60682Z"
              fill="white"/>
        <path d="M60.072 98.5201C38.88 98.5201 21.624 81.2641 21.624 60.0721C21.624 38.8801 38.856 21.6241 60.072 21.6241C81.264 21.6241 98.52 38.8801 98.52 60.0721C98.52 81.2881 81.288 98.5201 60.072 98.5201Z"
              fill="#006633"/>
        <path d="M60.0729 22.3921C80.8569 22.3921 97.7529 39.2881 97.7529 60.0721C97.7529 80.8561 80.8569 97.7521 60.0729 97.7521C39.2889 97.7521 22.3929 80.8561 22.3929 60.0721C22.3929 39.2881 39.3129 22.3921 60.0729 22.3921ZM60.0729 20.8801C38.4249 20.8801 20.8809 38.4241 20.8809 60.0721C20.8809 81.7201 38.4249 99.2881 60.0969 99.2881C81.7449 99.2881 99.3129 81.7441 99.3129 60.0721C99.2889 38.4241 81.7449 20.8801 60.0729 20.8801Z"
              fill="white"/>
        <path d="M25.8715 89.0162L27.1915 90.5042L24.6235 95.5682L29.5195 92.8562L30.6235 93.8642L28.4875 98.9762L33.1435 95.9282L34.7275 97.0562L27.3115 101.472L26.0875 100.464L28.1515 95.4482L23.3995 98.0402L22.2715 96.9362L25.8715 89.0162Z"
              fill="white"/>
        <path d="M36.2876 98.0401L37.7996 98.9521L33.6956 105.816L32.1836 104.904L36.2876 98.0401Z" fill="white"/>
        <path d="M39.9594 100.128L41.6874 100.944L42.4314 104.856L45.4314 102.432L47.2074 103.032L44.4714 110.52L42.8394 109.992L44.6154 105.096L41.2794 107.424H41.2554L40.4394 103.464L38.3994 108.216L36.8154 107.496L39.9594 100.128Z"
              fill="white"/>
        <path d="M49.5356 103.656C50.9516 103.968 52.1756 104.184 52.9676 104.328C53.8796 104.448 54.5516 104.808 54.9356 105.336C55.2476 105.744 55.3676 106.224 55.2956 106.776V106.8C55.1756 107.688 54.6476 108.216 53.9996 108.36C54.8636 108.84 55.3676 109.464 55.1996 110.52V110.544C54.9836 111.984 53.7116 112.56 51.9116 112.296C50.6396 112.08 49.3436 111.816 47.9756 111.504L49.5356 103.656ZM52.1516 110.736C52.9196 110.856 53.4236 110.64 53.5196 110.064V110.04C53.5916 109.512 53.2076 109.128 52.3676 108.984C51.7196 108.888 50.9276 108.744 50.3276 108.6C50.2796 108.864 50.0396 110.112 49.9916 110.304C50.4716 110.448 51.1436 110.568 52.1516 110.736ZM52.1516 107.496C52.8956 107.616 53.4476 107.424 53.5196 106.848V106.824C53.5916 106.296 53.2796 105.96 52.5116 105.816C51.7436 105.672 51.1436 105.552 50.9036 105.504C50.8556 105.72 50.6156 106.992 50.5676 107.16C51.0476 107.304 51.4076 107.352 52.1516 107.496Z"
              fill="white"/>
        <path d="M58.0327 104.856L59.7847 104.88C59.7847 104.88 59.6887 111.024 59.6887 111.288C60.6487 111.288 62.3287 111.24 63.6007 111.144C63.6247 111.648 63.6967 112.728 63.6967 112.728C61.8007 112.872 59.5927 112.896 57.8887 112.848L58.0327 104.856Z"
              fill="white"/>
        <path d="M65.0635 104.64C66.9595 104.4 68.7115 104.112 70.7755 103.632C70.7755 103.632 71.0635 104.928 71.1115 105.168C70.2235 105.384 68.2075 105.816 67.0555 105.96L67.2955 107.568C68.4235 107.4 69.6715 107.16 70.9675 106.848L71.3035 108.384C70.2955 108.648 68.7595 108.912 67.5595 109.104L67.7995 110.76C69.2875 110.52 70.6315 110.256 72.2155 109.872L72.5515 111.408C70.4875 111.912 68.4715 112.224 66.3115 112.536L65.0635 104.64Z"
              fill="white"/>
        <path d="M73.248 102.96L76.08 101.952C78.4321 101.04 80.6641 102.024 81.4801 104.136V104.16C82.2961 106.272 81.3121 108.528 78.9601 109.44C77.6401 109.968 76.776 110.232 75.912 110.496L73.248 102.96ZM78.4081 107.928C79.6801 107.4 80.3041 106.152 79.8001 104.832V104.808C79.2961 103.488 78.0241 102.912 76.6801 103.44C76.6801 103.44 75.8881 103.752 75.504 103.872C75.6 104.136 77.1361 108.432 77.1361 108.432C77.1361 108.432 77.7841 108.192 78.4081 107.928Z"
              fill="white"/>
        <path d="M83.2089 103.272C81.9609 101.352 82.4649 98.808 84.5289 97.464C86.5929 96.12 89.0888 96.696 90.3368 98.616V98.64C91.5848 100.536 91.0808 103.08 89.0168 104.424C86.9289 105.768 84.4329 105.192 83.2089 103.272ZM88.8009 99.648C88.0329 98.472 86.5689 98.064 85.3929 98.832C84.1929 99.6 83.9769 101.064 84.7209 102.24L84.7449 102.264C85.4889 103.416 86.9529 103.824 88.1529 103.056C89.3288 102.288 89.5448 100.824 88.8009 99.648Z"
              fill="white"/>
        <path d="M89.2559 94.1042L90.4559 93.0242L96.5519 93.8882L92.9759 90.5042L94.1279 89.2082L99.9359 94.7042L98.9519 95.8322L92.5439 95.0402L96.0479 98.7362L94.7759 99.8882L89.2559 94.1042Z"
              fill="white"/>
        <path d="M9.36028 53.352C9.24028 54.024 9.14428 54.864 9.09628 55.728L7.48828 55.56C7.68028 53.328 7.99228 51.048 8.44828 48.936L10.0563 49.224C9.91228 49.968 9.67228 51.072 9.62428 51.6C9.91228 51.648 15.9363 52.512 15.9363 52.512L15.6723 54.264C15.6723 54.264 9.88828 53.424 9.36028 53.352Z"
              fill="white"/>
        <path d="M13.1514 35.856C13.8714 34.488 15.2394 32.184 16.2954 30.528L17.6394 31.344C16.7994 32.592 15.9354 34.008 15.3594 35.088L16.7754 35.88C17.3034 34.944 17.9754 33.84 18.7434 32.616L20.0874 33.432C19.4154 34.488 18.6474 35.664 18.1434 36.672L19.6074 37.488C20.0394 36.672 21.1194 34.92 21.8394 33.84L23.1834 34.632C22.2474 35.976 20.9034 38.232 20.1354 39.744L13.1514 35.856Z"
              fill="white"/>
        <path d="M23.1847 28.0321C21.5527 26.4241 21.4327 23.8801 23.1607 22.1281C24.2167 21.0481 25.2247 20.7601 26.2567 20.7601L26.3767 22.4641C25.5367 22.5121 24.8647 22.7041 24.2887 23.2801C23.3287 24.2401 23.4487 25.7281 24.4327 26.6881L24.4567 26.7121C25.4407 27.6721 26.9047 27.8161 27.8647 26.8321C28.5127 26.1841 28.6327 25.5361 28.6807 24.6721H30.2647C30.3127 25.8721 30.0487 26.9041 28.9687 28.0081C27.3367 29.6881 24.8167 29.6401 23.1847 28.0321Z"
              fill="white"/>
        <path d="M39.7206 11.376L41.2326 10.776L47.5206 17.064L45.7206 17.64L44.3766 16.248L41.2566 17.568V19.416L39.6006 20.208L39.7206 11.376ZM43.2006 15.048L41.2326 13.032L41.2086 15.84L43.2006 15.048Z"
              fill="white"/>
        <path d="M47.5908 8.78408L49.4628 8.35208L52.2948 11.3521L54.0708 7.60808L55.9668 7.46408L56.9748 15.3841L55.2228 15.5281L54.5748 10.3441L52.7508 14.1361H52.7028L49.8228 11.1361L50.8308 16.2241L49.1268 16.6321L47.5908 8.78408Z"
              fill="white"/>
        <path d="M59.5203 7.29601L61.2483 7.32001L62.8563 7.36801C64.9203 7.46401 65.8563 8.71201 65.7843 10.272V10.296C65.7123 12.144 64.2243 12.984 62.4243 12.936L61.1043 12.888L61.0323 15.288H59.2803L59.5203 7.29601ZM62.5683 11.376C63.4563 11.4 63.9843 10.92 64.0083 10.248V10.224C64.0323 9.43201 63.5523 8.95201 62.6643 8.90401L61.2723 8.88001L61.1763 11.352L62.5683 11.376Z"
              fill="white"/>
        <path d="M108.84 39.792L109.464 41.4L110.016 42.912C110.712 44.856 109.896 46.2 108.432 46.728H108.408C106.656 47.352 105.336 46.272 104.688 44.616L104.232 43.392L101.976 44.232L101.304 42.6L108.84 39.792ZM106.2 44.136C106.512 44.952 107.136 45.288 107.784 45.048H107.808C108.552 44.784 108.816 44.136 108.528 43.32L108.024 42L105.696 42.84L106.2 44.136Z"
              fill="white"/>
        <path d="M68.88 8.016L70.608 8.352L69.144 16.2L67.416 15.888L68.88 8.016Z" fill="white"/>
        <path d="M72.2636 12.6241C73.0316 10.4641 75.3356 9.31205 77.6635 10.1281C79.9915 10.9441 81.0475 13.2721 80.2795 15.4321V15.4561C79.5115 17.5921 77.2075 18.7441 74.8796 17.9281C72.5516 17.0881 71.4956 14.7601 72.2636 12.6241ZM78.5275 14.8561C78.9835 13.5361 78.4315 12.1201 77.0875 11.6401C75.7436 11.1601 74.4475 11.9041 73.9916 13.1761V13.2001C73.5356 14.4961 74.1116 15.9121 75.4315 16.3921C76.7755 16.8721 78.0715 16.1281 78.5275 14.8561Z"
              fill="white"/>
        <path d="M84.3844 13.2001L85.8004 13.968L86.5204 20.1601L89.1844 16.0321L90.6244 17.0161L86.2804 23.7121L85.0324 22.8721L84.4564 16.5601L81.9124 20.9521L80.4004 20.1121L84.3844 13.2001Z"
              fill="white"/>
        <path d="M88.9199 24.312L90.5279 24.048C90.6959 24.96 91.0079 25.752 91.7039 26.352C92.2559 26.832 92.7599 26.88 93.0719 26.52L93.0959 26.496C93.3839 26.16 93.3359 25.8 92.5439 24.672C91.5839 23.304 91.1039 22.296 92.1359 21.072V21.048C93.0959 19.944 94.6079 19.968 95.8319 21.048C96.7199 21.816 97.2239 22.728 97.4159 23.76L95.8559 24.168C95.6399 23.328 95.3039 22.656 94.7999 22.224C94.2959 21.792 93.8159 21.792 93.5759 22.08L93.5519 22.104C93.2159 22.512 93.3599 22.848 94.1759 24.024C95.1359 25.416 95.4479 26.448 94.5359 27.504L94.5119 27.528C93.4799 28.728 91.9679 28.608 90.6719 27.48C89.7359 26.712 89.0879 25.584 88.9199 24.312Z"
              fill="white"/>
        <path d="M100.536 26.136L101.64 27.48L99.1442 29.424L101.088 32.088L103.68 30.264L104.664 31.752L98.0882 36.312L97.1282 34.848L99.7682 33L97.8722 30.432L95.3282 32.376L94.2002 31.032L100.536 26.136Z"
              fill="white"/>
        <path d="M28.1279 18.024L29.5439 16.992L31.3679 19.584L34.2479 17.664L32.5919 14.976L34.1279 14.088L38.3279 20.88L36.7919 21.768L35.1119 19.032L32.2799 20.904L34.1279 23.52L32.7359 24.576L28.1279 18.024Z"
              fill="white"/>
        <path d="M9.19141 45.9599L9.67141 44.2799L12.6954 45.2399L13.7754 42.1439L10.8234 41.0159L11.4954 39.3839L18.9594 42.2159L18.2874 43.8479L15.2874 42.7199L14.2314 45.7439L17.3034 46.7279L16.8234 48.4079L9.19141 45.9599Z"
              fill="white"/>
        <path d="M106.536 34.9439L107.352 36.5039L100.2 40.1279L99.4082 38.5679L106.536 34.9439Z" fill="white"/>
        <path d="M105 49.6081L106.368 50.4481C105.888 51.2401 105.624 52.0561 105.744 52.9681C105.84 53.6881 106.201 54.0721 106.657 54.0001H106.68C107.112 53.9281 107.304 53.6401 107.448 52.2481C107.616 50.5921 107.904 49.4881 109.488 49.2721H109.512C110.952 49.0561 112.08 50.0881 112.32 51.6961C112.488 52.8481 112.272 53.8801 111.744 54.7921L110.304 54.0721C110.688 53.3041 110.88 52.5601 110.784 51.8881C110.688 51.2161 110.328 50.9041 109.944 50.9761H109.92C109.392 51.0481 109.272 51.4081 109.128 52.8481C108.936 54.5281 108.504 55.5121 107.112 55.7041H107.088C105.504 55.9201 104.448 54.8641 104.208 53.1601C104.04 51.9601 104.28 50.6881 105 49.6081Z"
              fill="white"/>
        <path d="M63.1198 83.28C62.3518 84.072 61.2958 84.552 60.1198 84.552C58.9438 84.552 57.8878 84.072 57.1198 83.28C56.6878 83.88 56.4238 84.624 56.4238 85.416C56.4238 86.208 56.6878 86.952 57.1198 87.552C57.8878 86.76 58.9438 86.28 60.1198 86.28C61.2958 86.28 62.3518 86.76 63.1198 87.552C63.5518 86.952 63.8158 86.208 63.8158 85.416C63.8158 84.624 63.5278 83.88 63.1198 83.28Z"
              fill="white"/>
        <path d="M60.096 83.52C61.008 83.52 61.8 83.136 62.376 82.536C61.752 82.032 60.96 81.72 60.096 81.72C59.232 81.72 58.44 82.032 57.792 82.536C58.392 83.136 59.208 83.52 60.096 83.52Z"
              fill="white"/>
        <path d="M60.096 87.2882C59.184 87.2882 58.392 87.6722 57.792 88.2722C58.416 88.7761 59.208 89.0882 60.096 89.0882C60.96 89.0882 61.752 88.7761 62.4 88.2722C61.824 87.6722 61.008 87.3122 60.096 87.2882Z"
              fill="white"/>
        <path d="M43.1035 78.0239H48.5515C49.2475 77.3279 49.9435 76.6079 50.6395 75.9119H45.1435C44.4475 76.6319 43.7755 77.3279 43.1035 78.0239Z"
              fill="white"/>
        <path d="M46.2715 74.8082H51.7195C52.4155 74.0882 53.1115 73.3682 53.7355 72.6962H48.4075C47.6875 73.3922 46.9915 74.1122 46.2715 74.8082Z"
              fill="white"/>
        <path d="M41.8808 79.3442C41.3288 79.9442 40.9928 80.3762 42.2408 81.6002C43.4648 82.8482 43.8968 82.5122 44.4968 81.9602C44.7128 81.7682 44.9288 81.5522 45.1448 81.3602C45.8888 80.6642 46.6808 79.8962 47.4728 79.1282H42.0968C42.0008 79.2002 41.9288 79.2722 41.8808 79.3442Z"
              fill="white"/>
        <path d="M54.9126 71.472L55.0086 71.376C55.2006 71.184 55.2006 71.16 55.3926 70.968C55.5846 70.752 55.7046 70.632 55.7046 70.464L53.4006 68.16C53.2566 68.16 53.1126 68.256 52.8966 68.448C52.7046 68.64 52.6566 68.664 52.4406 68.856L52.3446 68.952C51.5046 69.744 50.5445 70.656 49.5605 71.616H54.7926C54.8166 71.568 54.8646 71.52 54.9126 71.472Z"
              fill="white"/>
        <path d="M74.3522 80.7362V75.2642C73.6562 74.5682 72.9362 73.8722 72.2402 73.1762V78.6722C72.9602 79.3682 73.6562 80.0642 74.3522 80.7362Z"
              fill="white"/>
        <path d="M71.1598 77.568V72.12C70.4398 71.424 69.7198 70.728 69.0479 70.104V75.432C69.7198 76.128 70.4398 76.848 71.1598 77.568Z"
              fill="white"/>
        <path d="M54.1433 56.9281L54.1673 54.5281H55.4873C55.5593 54.3361 55.6073 54.1201 55.6553 53.9281H54.1673V51.2161H55.9433C55.9433 51.0001 55.9193 50.8081 55.9193 50.6161H54.1673V47.9041H55.4153C55.3433 47.7121 55.2953 47.4961 55.2233 47.3041H54.1673V45.3601C53.8793 44.9041 53.5433 44.4721 53.1593 44.0161L50.8553 43.9921V41.8081C50.6633 41.6401 50.4473 41.4961 50.2553 41.3281V43.9681H47.5673V41.2801H50.1833C49.8953 41.0641 49.6073 40.8721 49.3193 40.6801H47.5673V39.7201C47.3753 39.6241 47.1593 39.5521 46.9673 39.4561V40.6801H44.2793V38.8081C44.0873 38.7841 43.8713 38.7841 43.6793 38.7601V40.6801H40.9913V39.1681C40.7993 39.2401 40.5833 39.3121 40.3913 39.3841V40.6801H38.3273C38.1113 40.8721 37.8953 41.0641 37.6793 41.2801C37.4873 41.4721 37.2953 41.6881 37.1273 41.9041L37.1033 43.9921H35.7593C35.6633 44.1841 35.5913 44.4001 35.5193 44.5921H37.0313V47.3041H35.1113C35.1113 47.4961 35.1353 47.7121 35.1353 47.9041H37.0313V50.6161H35.8073C35.8793 50.8081 35.9753 51.0241 36.0713 51.2161H37.0553V52.9921C37.2473 53.2801 37.4393 53.5921 37.6553 53.8801V51.2161H40.3433V53.9281H37.6793C37.8233 54.1201 37.9913 54.3121 38.1353 54.5041L40.3433 54.5281V56.8081C40.7993 57.1921 41.2553 57.5281 41.7113 57.8401H43.6553V58.8001C43.8473 58.8721 44.0633 58.9681 44.2553 59.0401V57.8401H46.9433V59.5201C47.1353 59.5441 47.3513 59.5441 47.5433 59.5441V57.8401H50.2313V59.2801C50.4473 59.2321 50.6393 59.1601 50.8313 59.1121V57.8401H53.2073C53.3753 57.6961 53.5433 57.5521 53.7113 57.3841C53.8793 57.2401 54.0233 57.0961 54.1433 56.9281ZM40.3433 50.6161H37.6553V47.9041H40.3433V50.6161ZM40.3433 47.3041H37.6553V44.5921H40.3433V47.3041ZM40.3433 43.9921H37.6553V41.2801H40.3433V43.9921ZM43.6553 57.2401H40.9673V54.5281H43.6553V57.2401ZM43.6553 53.9281H40.9673V51.2161H43.6553V53.9281ZM43.6553 50.6161H40.9673V47.9041H43.6553V50.6161ZM43.6553 47.3041H40.9673V44.5921H43.6553V47.3041ZM43.6553 43.9921H40.9673V41.2801H43.6553V43.9921ZM46.9433 57.2401H44.2553V54.5281H46.9433V57.2401ZM44.2553 53.9281V51.2161H46.9433V53.9281H44.2553ZM44.2553 50.6161V47.9041H46.9433V50.6161H44.2553ZM44.2553 47.3041V44.5921H46.9433V47.3041H44.2553ZM44.2553 43.9921V41.2801H46.9433V43.9921H44.2553ZM50.2553 57.2401H47.5673V54.5281H50.2553V57.2401ZM50.2553 53.9281H47.5673V51.2161H50.2553V53.9281ZM50.2553 50.6161H47.5673V47.9041H50.2553V50.6161ZM50.2553 47.3041H47.5673V44.5921H50.2553V47.3041ZM53.5673 57.2401H50.8793V54.5281H53.5673V57.2401ZM53.5673 53.9281H50.8793V51.2161H53.5673V53.9281ZM53.5673 50.6161H50.8793V47.9041H53.5673V50.6161ZM53.5673 47.3041H50.8793V44.5921H53.5673V47.3041Z"
              fill="white"/>
        <path d="M83.136 50.6159V47.9039H85.032C85.056 47.7119 85.056 47.4959 85.056 47.3039H83.112V44.5919H84.6481C84.576 44.3999 84.4801 44.1839 84.4081 43.9919H83.112V41.9039C82.92 41.6879 82.752 41.4719 82.536 41.2799C82.32 41.0639 82.104 40.8719 81.8881 40.7039L79.8 40.6799V39.4079C79.608 39.3119 79.392 39.2399 79.2 39.1919V40.7039H76.512V38.7839C76.32 38.7839 76.104 38.8079 75.912 38.8319V40.7039H73.224V39.4799C73.032 39.5519 72.816 39.6479 72.624 39.7439V40.7039H70.872C70.584 40.8959 70.296 41.0879 69.984 41.3039H72.6V44.0159H69.912V41.3759C69.72 41.5199 69.528 41.6639 69.336 41.8319L69.312 44.0159H67.032C66.648 44.4479 66.312 44.9039 66.024 45.3599V47.3279H64.968C64.896 47.5199 64.824 47.7359 64.776 47.9279H66.024V50.6399H64.272C64.248 50.8319 64.248 51.0479 64.248 51.2399H66.024V53.9519H64.536C64.584 54.1679 64.656 54.3599 64.704 54.5519H66.024V56.9279C66.168 57.0959 66.312 57.2639 66.456 57.4079C66.624 57.5519 66.768 57.7199 66.936 57.8399H69.312V59.0879C69.504 59.1599 69.72 59.2079 69.912 59.2799V57.8399H72.6V59.5439C72.816 59.5439 73.008 59.5199 73.2 59.5199V57.8399H75.888V59.0399C76.08 58.9679 76.296 58.8719 76.488 58.7999V57.8399H78.408C78.864 57.5279 79.32 57.1919 79.776 56.8319L79.8 54.5279H81.984C82.152 54.3359 82.32 54.1199 82.464 53.9279H79.8V51.2159H82.4881V53.8799C82.7041 53.5919 82.896 53.3039 83.0881 53.0159V51.2159H84.072C84.168 51.0239 84.24 50.8079 84.336 50.6159H83.136ZM69.312 57.2399H66.624V54.5279H69.312V57.2399ZM69.312 53.9279H66.624V51.2159H69.312V53.9279ZM69.312 50.6159H66.624V47.9039H69.312V50.6159ZM69.312 47.3039H66.624V44.5919H69.312V47.3039ZM69.912 44.5919H72.6V47.3039H69.912V44.5919ZM72.6 57.2399H69.912V54.5279H72.6V57.2399ZM72.6 53.9279H69.912V51.2159H72.6V53.9279ZM72.6 50.6159H69.912V47.9039H72.6V50.6159ZM75.912 57.2399H73.224V54.5279H75.912V57.2399ZM75.912 53.9279H73.224V51.2159H75.912V53.9279ZM75.912 50.6159H73.224V47.9039H75.912V50.6159ZM75.912 47.3039H73.224V44.5919H75.912V47.3039ZM75.912 43.9919H73.224V41.2799H75.912V43.9919ZM79.2 57.2399H76.512V54.5279H79.2V57.2399ZM79.2 53.9279H76.512V51.2159H79.2V53.9279ZM79.2 50.6159H76.512V47.9039H79.2V50.6159ZM79.2 47.3039H76.512V44.5919H79.2V47.3039ZM79.2 43.9919H76.512V41.2799H79.2V43.9919ZM82.512 50.6159H79.824V47.9039H82.512V50.6159ZM82.512 47.3039H79.824V44.5919H82.512V47.3039ZM82.512 43.9919H79.824V41.2799H82.512V43.9919Z"
              fill="white"/>
        <path d="M59.4469 60.4081C58.6789 59.0401 58.3429 57.6001 58.1989 55.7521C58.1749 55.0321 58.1989 54.2401 58.2709 53.3761C58.6069 49.1281 57.7189 45.0721 52.9189 40.7281C46.2709 34.7281 39.7189 36.1201 36.0949 39.7681C32.4469 43.4161 31.0549 49.9441 37.0549 56.5921C41.3749 61.3921 45.4309 62.2801 49.7029 61.9441C50.5909 61.8721 51.3589 61.8481 52.0789 61.8721C54.0469 62.0161 55.5349 62.3761 56.9749 63.2401L57.5029 62.7121C58.3429 61.8961 58.9669 61.1521 59.4469 60.4081ZM56.4709 52.5601C56.3509 53.9761 55.8949 56.0641 54.1429 57.8161C52.3909 59.5681 50.3029 60.0241 48.8869 60.1441C45.1189 60.4801 41.9029 59.4001 38.8309 56.1841C33.4789 50.6161 33.2869 44.8081 37.2229 40.8721C41.1349 36.9361 46.9669 37.1521 52.5349 42.4801C55.7269 45.5761 56.8069 48.7921 56.4709 52.5601Z"
              fill="white"/>
        <path d="M60.8408 66.5999L63.7928 69.6239L65.9528 67.4639L63.0728 64.6319C62.4488 65.0879 61.8248 65.6399 61.1288 66.3119L60.8408 66.5999Z"
              fill="white"/>
        <path d="M75.6721 81.9602C76.2721 82.5122 76.7041 82.8482 77.9281 81.6001C79.1761 80.3521 78.8401 79.9441 78.2881 79.3441C78.0961 79.1281 77.8801 78.9121 77.6881 78.6961C76.9921 77.9521 76.2241 77.1601 75.4561 76.3681V81.7682C75.5281 81.8162 75.6001 81.8882 75.6721 81.9602Z"
              fill="white"/>
        <path d="M67.8003 68.928L67.7043 68.832C67.5123 68.64 67.4883 68.64 67.2963 68.448C67.0803 68.256 66.9363 68.16 66.7923 68.16L64.4883 70.464C64.4883 70.608 64.5843 70.752 64.7763 70.968C64.9683 71.16 64.9923 71.208 65.1843 71.424L65.2803 71.52C66.0963 72.36 66.9843 73.32 67.9443 74.304V69.072C67.8963 69 67.8483 68.976 67.8003 68.928Z"
              fill="white"/>
        <path d="M60.3362 65.544C62.9522 62.928 64.8722 62.088 68.0882 61.848C68.8082 61.824 69.6002 61.848 70.4642 61.92C74.7362 62.256 78.7682 61.368 83.1122 56.568C89.1122 49.92 87.7202 43.368 84.0722 39.744C80.4242 36.096 73.8962 34.704 67.2482 40.704C62.4482 45.024 61.5602 49.08 61.8962 53.352C61.9682 54.24 61.9922 55.008 61.9682 55.728C61.7282 58.944 60.9122 60.84 58.2962 63.48L54.2402 67.44L56.4002 69.6L60.3362 65.544ZM63.6962 52.56C63.3602 48.792 64.4402 45.576 67.6562 42.48C73.2242 37.152 79.0322 36.96 82.9682 40.872C86.9042 44.784 86.6882 50.616 81.3602 56.184C78.2642 59.4 75.0482 60.48 71.2802 60.144C69.8642 60.024 67.7762 59.568 66.0242 57.816C64.2722 56.064 63.8162 53.976 63.6962 52.56Z"
              fill="white"/>
    </g>
    <defs>
        <clipPath id="clip0">
            <rect width="120" height="120" fill="white"/>
        </clipPath>
    </defs>
</svg>
